<?xml version="1.0" encoding="utf-8"?>
<!-- Generator: Adobe Illustrator 19.1.0, SVG Export Plug-In . SVG Version: 6.00 Build 0)  -->
<svg version="1.1" id="Layer_1" xmlns="http://www.w3.org/2000/svg" xmlns:xlink="http://www.w3.org/1999/xlink" x="0px" y="0px"
	 viewBox="-240 153.2 309.2 307.8" style="enable-background:new -240 153.2 309.2 307.8;" xml:space="preserve">
<style type="text/css">
	.st0{fill:none;stroke:#E6E6E6;stroke-width:10;stroke-miterlimit:10;}
	.st1{fill:#EB5768;}
	.st2{enable-background:new    ;}
	.st3{fill:#989897;}
	.st4{fill:#E5E5E5;}
	.st5{font-family:'OpenSans-Semibold';}
	.st6{font-size:13px;}
	.st7{fill:#2E4050;}
	.st8{fill:#53C1A9;}
	.st9{fill:#FFFFFF;}
</style>
<g id="Web_BGs">
</g>
<g id="Contents">
	<g>
		<path class="st0" d="M4.3,272c0-49.9-40.5-90.4-90.4-90.4s-90.4,40.5-90.4,90.4s40.5,90.4,90.4,90.4
			C-36.1,362.3,4.3,321.9,4.3,272"/>
		<path class="st1" d="M-188.5,273.7c0.8,55.3,45.9,100.5,101.3,101.3C-29.8,375.8,17,329.5,17,272.3l-24.4,0.1
			c0,43.9-36.1,79.4-80.3,78.4c-41.6-1-75.5-34.9-76.5-76.5c-1-44.2,34.4-80.3,78.4-80.3c20.8,0,39.6,8.1,53.7,21.3l19.2-15.4
			c-18.6-18.7-44.4-30.3-72.9-30.3C-143,169.5-189.3,216.3-188.5,273.7"/>
		<g class="st2">
			<path class="st1" d="M-109.3,235.5c6,0,10.7,1.2,14,3.6c3.3,2.4,5,5.9,5,10.3c0,3-0.8,5.7-2.4,7.9c-1.6,2.3-4.1,4.3-7.5,6
				c4.2,2.4,7.2,4.8,8.9,7.2c1.7,2.4,2.6,5,2.6,7.7c0,5.1-1.8,9-5.5,11.8c-3.7,2.8-8.8,4.2-15.4,4.2c-6.7,0-11.9-1.4-15.4-4.1
				c-3.6-2.7-5.4-6.6-5.4-11.7c0-3.3,0.8-6.1,2.4-8.5c1.6-2.3,4.3-4.4,8-6.3c-3-2-5.2-4.2-6.6-6.5c-1.4-2.3-2.1-4.9-2.1-7.7
				c0-4.4,1.7-7.8,5.1-10.2C-120,236.7-115.3,235.5-109.3,235.5z M-116.1,277.7c0,1.6,0.6,2.9,1.7,3.9c1.1,1,2.7,1.5,4.8,1.5
				c4.6,0,6.9-1.7,6.9-5c0-1.3-0.5-2.5-1.5-3.8c-1-1.2-2.8-2.6-5.4-4.2c-2.3,1.2-4,2.5-5,3.7C-115.6,275-116.1,276.3-116.1,277.7z
				 M-109.3,246.6c-1.3,0-2.4,0.4-3.4,1.2c-0.9,0.8-1.4,1.8-1.4,3c0,2.2,1.5,4.2,4.6,5.9c1.8-1.1,3.1-2,3.8-2.9c0.7-0.9,1-1.9,1-3
				c0-1.2-0.5-2.3-1.4-3C-107,247-108.1,246.6-109.3,246.6z"/>
			<path class="st1" d="M-62.4,235.5c6,0,10.7,1.2,14,3.6c3.3,2.4,5,5.9,5,10.3c0,3-0.8,5.7-2.4,7.9c-1.6,2.3-4.1,4.3-7.5,6
				c4.2,2.4,7.2,4.8,8.9,7.2c1.7,2.4,2.6,5,2.6,7.7c0,5.1-1.8,9-5.5,11.8c-3.7,2.8-8.8,4.2-15.4,4.2c-6.7,0-11.9-1.4-15.4-4.1
				c-3.6-2.7-5.4-6.6-5.4-11.7c0-3.3,0.8-6.1,2.4-8.5c1.6-2.3,4.3-4.4,8-6.3c-3-2-5.2-4.2-6.6-6.5c-1.4-2.3-2.1-4.9-2.1-7.7
				c0-4.4,1.7-7.8,5.1-10.2C-73.1,236.7-68.4,235.5-62.4,235.5z M-69.2,277.7c0,1.6,0.6,2.9,1.7,3.9c1.1,1,2.7,1.5,4.8,1.5
				c4.6,0,6.9-1.7,6.9-5c0-1.3-0.5-2.5-1.5-3.8c-1-1.2-2.8-2.6-5.4-4.2c-2.3,1.2-4,2.5-5,3.7C-68.7,275-69.2,276.3-69.2,277.7z
				 M-62.5,246.6c-1.3,0-2.4,0.4-3.4,1.2c-0.9,0.8-1.4,1.8-1.4,3c0,2.2,1.5,4.2,4.6,5.9c1.8-1.1,3.1-2,3.8-2.9c0.7-0.9,1-1.9,1-3
				c0-1.2-0.5-2.3-1.4-3C-60.1,247-61.2,246.6-62.5,246.6z"/>
		</g>
		<g>
			<path class="st3" d="M-125.2,304.7c0,1-0.3,1.7-1,2.2c-0.6,0.5-1.5,0.8-2.7,0.8h-1v3.5h-1.5v-9.3h2.7c1.2,0,2,0.2,2.6,0.7
				S-125.2,303.8-125.2,304.7z M-129.8,306.5h0.8c0.8,0,1.4-0.1,1.7-0.4s0.5-0.7,0.5-1.3c0-0.5-0.2-0.9-0.5-1.2
				c-0.3-0.3-0.8-0.4-1.5-0.4h-1.1L-129.8,306.5L-129.8,306.5z"/>
			<path class="st3" d="M-116.5,311.2h-5.2v-9.3h5.2v1.3h-3.7v2.5h3.5v1.3h-3.5v2.9h3.7V311.2z"/>
			<path class="st3" d="M-111.5,307.5v3.7h-1.5v-9.3h2.6c1.2,0,2.1,0.2,2.7,0.7s0.9,1.1,0.9,2c0,1.2-0.6,2-1.8,2.5l2.6,4.1h-1.7
				l-2.2-3.7H-111.5z M-111.5,306.3h1.1c0.7,0,1.2-0.1,1.5-0.4s0.5-0.7,0.5-1.2s-0.2-0.9-0.5-1.1s-0.9-0.3-1.5-0.3h-1v3H-111.5z"/>
			<path class="st3" d="M-99.2,303.1c-0.9,0-1.6,0.3-2.1,0.9s-0.7,1.5-0.7,2.6s0.2,2,0.7,2.6s1.2,0.9,2.1,0.9c0.4,0,0.8,0,1.1-0.1
				c0.4-0.1,0.8-0.2,1.1-0.3v1.3c-0.7,0.3-1.6,0.4-2.5,0.4c-1.4,0-2.4-0.4-3.1-1.2c-0.7-0.8-1.1-2-1.1-3.5c0-1,0.2-1.8,0.5-2.5
				c0.4-0.7,0.9-1.3,1.5-1.7s1.5-0.6,2.4-0.6s1.8,0.2,2.6,0.6l-0.5,1.3c-0.3-0.1-0.6-0.3-1-0.4C-98.4,303.2-98.8,303.1-99.2,303.1z"
				/>
			<path class="st3" d="M-88.1,311.2h-5.2v-9.3h5.2v1.3h-3.7v2.5h3.5v1.3h-3.5v2.9h3.7V311.2z"/>
			<path class="st3" d="M-76.8,311.2h-1.9l-4.6-7.4h-0.1v0.4c0.1,0.8,0.1,1.5,0.1,2.2v4.8h-1.4v-9.3h1.8l4.6,7.4l0,0
				c0-0.1,0-0.5-0.1-1.1c0-0.6,0-1.1,0-1.4v-4.9h1.4v9.3H-76.8z"/>
			<path class="st3" d="M-69.6,311.2h-1.5v-8h-2.7v-1.3h7v1.3h-2.7v8H-69.6z"/>
		</g>
		<text transform="matrix(1 0 0 1 -65.0407 311.2192)" class="st4 st5 st6"> </text>
		<g>
			<path class="st7" d="M-59.6,307.7c0-1.1,0.2-2.2,0.5-3.1c0.3-1,0.8-1.8,1.4-2.6h0.7c-0.6,0.8-1.1,1.6-1.4,2.6s-0.5,2-0.5,3.1
				c0,2,0.6,3.9,1.9,5.6h-0.7c-0.6-0.7-1.1-1.6-1.4-2.5C-59.4,309.8-59.6,308.8-59.6,307.7z"/>
			<path class="st7" d="M-50.6,304.7c0,1-0.2,1.7-0.5,2.2s-0.8,0.7-1.4,0.7c-0.6,0-1-0.3-1.3-0.8s-0.5-1.2-0.5-2.2
				c0-0.9,0.2-1.7,0.5-2.2s0.8-0.7,1.3-0.7c0.6,0,1,0.3,1.4,0.8C-50.8,303.1-50.6,303.8-50.6,304.7z M-53.7,304.7
				c0,0.8,0.1,1.4,0.3,1.8c0.2,0.4,0.5,0.6,0.9,0.6c0.8,0,1.2-0.8,1.2-2.4c0-0.8-0.1-1.4-0.3-1.8c-0.2-0.4-0.5-0.6-0.9-0.6
				s-0.7,0.2-0.9,0.6S-53.7,303.9-53.7,304.7z M-46.9,301.9l-5.1,9.3h-0.6l5.1-9.3H-46.9z M-45.2,308.4c0,1-0.2,1.7-0.5,2.2
				s-0.8,0.7-1.4,0.7c-0.6,0-1-0.3-1.3-0.8s-0.5-1.2-0.5-2.2s0.2-1.7,0.5-2.2s0.8-0.7,1.3-0.7c0.6,0,1,0.3,1.4,0.8
				S-45.2,307.5-45.2,308.4z M-48.3,308.4c0,0.8,0.1,1.4,0.3,1.8c0.2,0.4,0.5,0.6,0.9,0.6c0.8,0,1.2-0.8,1.2-2.3
				c0-1.6-0.4-2.3-1.2-2.3c-0.4,0-0.7,0.2-0.9,0.6C-48.2,307.1-48.3,307.7-48.3,308.4z"/>
			<path class="st7" d="M-40,307.7c0,1.1-0.2,2.2-0.5,3.1c-0.3,1-0.8,1.8-1.4,2.5h-0.7c1.3-1.7,1.9-3.6,1.9-5.6
				c0-1.1-0.2-2.1-0.5-3.1s-0.8-1.8-1.4-2.6h0.7c0.6,0.7,1.1,1.6,1.4,2.6C-40.1,305.5-40,306.5-40,307.7z"/>
		</g>
		<path class="st1" d="M17,272.3c0-6.8-5.5-12.2-12.2-12.2c-6.8,0-12.2,5.5-12.2,12.2c0,6.8,5.5,12.2,12.2,12.2
			C11.6,284.5,17,279.1,17,272.3"/>
		<path class="st1" d="M-10.5,207.3c0-6.8-5.5-12.2-12.2-12.2c-6.8,0-12.2,5.5-12.2,12.2c0,6.8,5.5,12.2,12.2,12.2
			C-15.9,219.5-10.5,214.1-10.5,207.3"/>
	</g>
	<g class="st2">
		<path class="st7" d="M-120.4,427.8c0,4.4-1.1,7.8-3.3,10.2c-2.2,2.4-5.3,3.6-9.3,3.6c-4.1,0-7.2-1.2-9.4-3.6
			c-2.2-2.4-3.3-5.8-3.3-10.3c0-4.4,1.1-7.9,3.3-10.2c2.2-2.4,5.3-3.6,9.4-3.6c4,0,7.1,1.2,9.3,3.6
			C-121.4,420-120.4,423.4-120.4,427.8z M-140.9,427.8c0,3.3,0.7,5.8,2,7.5c1.3,1.7,3.3,2.6,5.9,2.6c2.6,0,4.6-0.8,5.9-2.5
			c1.3-1.7,2-4.2,2-7.6c0-3.3-0.7-5.8-2-7.5c-1.3-1.7-3.3-2.6-5.9-2.6c-2.6,0-4.6,0.9-6,2.6S-140.9,424.5-140.9,427.8z"/>
		<path class="st7" d="M-96.7,422.5c0,2.8-0.9,5-2.8,6.5c-1.8,1.5-4.5,2.2-7.9,2.2h-2.8v10.1h-4.4v-26.9h7.8c3.4,0,5.9,0.7,7.6,2.1
			C-97.6,417.8-96.7,419.9-96.7,422.5z M-110.2,427.6h2.3c2.3,0,3.9-0.4,5-1.2c1.1-0.8,1.6-2,1.6-3.7c0-1.5-0.5-2.7-1.4-3.5
			c-0.9-0.8-2.4-1.1-4.4-1.1h-3.1V427.6z"/>
		<path class="st7" d="M-76.1,441.3h-15.2v-26.9h15.2v3.7H-87v7.3h10.1v3.7H-87v8.5h10.8V441.3z"/>
		<path class="st7" d="M-47.9,441.3h-5.4l-13.2-21.5h-0.1l0.1,1.2c0.2,2.3,0.3,4.4,0.3,6.3v14h-4v-26.9h5.3l13.2,21.3h0.1
			c0-0.3-0.1-1.3-0.1-3.1c-0.1-1.8-0.1-3.2-0.1-4.2v-14.1h4V441.3z"/>
		<path class="st7" d="M-25.6,441.3h-15.2v-26.9h15.2v3.7h-10.8v7.3h10.1v3.7h-10.1v8.5h10.8V441.3z"/>
		<path class="st7" d="M2.1,427.6c0,4.4-1.2,7.8-3.7,10.2c-2.5,2.4-6,3.5-10.7,3.5h-7.5v-26.9h8.3c4.3,0,7.6,1.2,10,3.5
			C1,420.2,2.1,423.4,2.1,427.6z M-2.5,427.8c0-6.4-3-9.7-9-9.7h-3.8v19.5h3.1C-5.7,437.6-2.5,434.3-2.5,427.8z"/>
	</g>
	<g class="st2">
		<path class="st7" d="M-126.5,398c0,3.1-0.8,5.4-2.5,7c-1.7,1.6-4.1,2.4-7.2,2.4h-5.1v-18.6h5.7c2.9,0,5.1,0.8,6.7,2.4
			C-127.3,392.9-126.5,395.1-126.5,398z M-128.8,398.1c0-2.4-0.6-4.2-1.8-5.5c-1.2-1.2-3-1.8-5.4-1.8h-3.1v14.8h2.6
			c2.6,0,4.5-0.6,5.8-1.9C-129.5,402.4-128.8,400.6-128.8,398.1z"/>
		<path class="st7" d="M-106.3,398.2c0,3-0.8,5.3-2.3,7c-1.5,1.7-3.6,2.6-6.3,2.6c-2.7,0-4.8-0.8-6.3-2.5c-1.5-1.7-2.2-4-2.2-7.1
			c0-3,0.7-5.4,2.2-7c1.5-1.7,3.6-2.5,6.3-2.5c2.7,0,4.7,0.8,6.2,2.5C-107,392.8-106.3,395.2-106.3,398.2z M-121.1,398.2
			c0,2.5,0.5,4.4,1.6,5.7s2.6,1.9,4.7,1.9c2.1,0,3.6-0.6,4.7-1.9c1-1.3,1.6-3.2,1.6-5.7c0-2.5-0.5-4.4-1.6-5.7
			c-1-1.3-2.6-1.9-4.6-1.9c-2.1,0-3.6,0.7-4.7,1.9S-121.1,395.7-121.1,398.2z"/>
		<path class="st7" d="M-94.2,390.6c-2,0-3.6,0.7-4.8,2c-1.2,1.4-1.8,3.2-1.8,5.6c0,2.4,0.6,4.3,1.7,5.6s2.8,2,4.9,2
			c1.3,0,2.8-0.2,4.4-0.7v1.9c-1.3,0.5-2.9,0.7-4.8,0.7c-2.7,0-4.8-0.8-6.3-2.5c-1.5-1.7-2.2-4-2.2-7.1c0-1.9,0.4-3.6,1.1-5
			c0.7-1.4,1.7-2.5,3.1-3.3c1.3-0.8,2.9-1.2,4.8-1.2c1.9,0,3.6,0.4,5.1,1.1l-0.9,1.9C-91.4,390.9-92.8,390.6-94.2,390.6z"/>
		<path class="st7" d="M-71.7,388.9v12c0,2.1-0.6,3.8-1.9,5c-1.3,1.2-3,1.8-5.3,1.8c-2.2,0-4-0.6-5.2-1.8s-1.8-2.9-1.8-5v-12h2.2
			V401c0,1.5,0.4,2.7,1.3,3.6c0.8,0.8,2.1,1.2,3.7,1.2c1.6,0,2.8-0.4,3.6-1.2c0.8-0.8,1.3-2,1.3-3.6v-12.1H-71.7z"/>
		<path class="st7" d="M-58.6,407.5l-6.3-16.4H-65c0.1,1.3,0.2,2.9,0.2,4.6v11.8h-2v-18.6h3.2l5.9,15.3h0.1l5.9-15.3h3.2v18.6h-2.2
			v-12c0-1.4,0.1-2.9,0.2-4.5h-0.1l-6.3,16.4H-58.6z"/>
		<path class="st7" d="M-33,407.5h-10.3v-18.6H-33v1.9h-8.2v6h7.7v1.9h-7.7v6.8h8.2V407.5z"/>
		<path class="st7" d="M-14.4,407.5h-2.5L-27,391.9h-0.1c0.1,1.8,0.2,3.5,0.2,5v10.5h-2v-18.6h2.4l10.1,15.5h0.1
			c0-0.2-0.1-1-0.1-2.2c-0.1-1.2-0.1-2.1-0.1-2.7v-10.6h2V407.5z"/>
		<path class="st7" d="M-3.6,407.5h-2.2v-16.6h-5.9v-1.9H2.3v1.9h-5.9V407.5z"/>
	</g>
	<g>
		<circle class="st8" cx="-178.3" cy="414.4" r="20.2"/>
		<g>
			<path class="st9" d="M-170.3,411l-7.8,7.8l-1.5,1.5c-0.2,0.2-0.5,0.3-0.7,0.3c-0.3,0-0.5-0.1-0.7-0.3l-1.5-1.5l-3.9-3.9
				c-0.2-0.2-0.3-0.5-0.3-0.7s0.1-0.5,0.3-0.7l1.5-1.5c0.2-0.2,0.5-0.3,0.7-0.3c0.3,0,0.5,0.1,0.7,0.3l3.2,3.2l7.1-7.1
				c0.2-0.2,0.5-0.3,0.7-0.3c0.3,0,0.5,0.1,0.7,0.3l1.5,1.5c0.2,0.2,0.3,0.5,0.3,0.7C-169.9,410.6-170.1,410.8-170.3,411z"/>
		</g>
	</g>
</g>
</svg>
