<?xml version="1.0" encoding="utf-8"?>
<!-- Generator: Adobe Illustrator 19.1.0, SVG Export Plug-In . SVG Version: 6.00 Build 0)  -->
<svg version="1.1" id="Layer_1" xmlns="http://www.w3.org/2000/svg" xmlns:xlink="http://www.w3.org/1999/xlink" x="0px" y="0px"
	 viewBox="-124 327.2 309.2 307.8" style="enable-background:new -124 327.2 309.2 307.8;" xml:space="preserve">
<style type="text/css">
	.st0{fill:none;stroke:#E6E6E6;stroke-width:10;stroke-miterlimit:10;}
	.st1{fill:#EB5768;}
	.st2{enable-background:new    ;}
	.st3{fill:#989897;}
	.st4{fill:#2E4050;}
	.st5{fill:#53C1A9;}
	.st6{fill:#FFFFFF;}
</style>
<g id="Web_BGs">
</g>
<g id="Contents">
	<g>
		<path class="st0" d="M120.3,446c0-49.9-40.5-90.4-90.4-90.4s-90.4,40.5-90.4,90.4s40.5,90.4,90.4,90.4
			C79.9,536.3,120.3,495.9,120.3,446"/>
		<path class="st1" d="M-72.5,447.7C-71.7,503-26.6,548.2,28.8,549C86.2,549.8,133,503.5,133,446.3l-24.4,0.1
			c0,43.9-36.1,79.4-80.3,78.4c-41.6-1-75.5-34.9-76.5-76.5c-1-44.2,34.4-80.3,78.4-80.3c20.8,0,39.6,8.1,53.7,21.3l19.2-15.4
			c-18.6-18.7-44.4-30.3-72.9-30.3C-27,343.5-73.3,390.3-72.5,447.7"/>
		<g class="st2">
			<path class="st1" d="M6.7,409.5c6,0,10.7,1.2,14,3.6c3.3,2.4,5,5.9,5,10.3c0,3-0.8,5.7-2.4,7.9c-1.6,2.3-4.1,4.3-7.5,6
				c4.2,2.4,7.2,4.8,8.9,7.2c1.7,2.4,2.6,5,2.6,7.7c0,5.1-1.8,9-5.5,11.8c-3.7,2.8-8.8,4.2-15.4,4.2c-6.7,0-11.9-1.4-15.4-4.1
				c-3.6-2.7-5.4-6.6-5.4-11.7c0-3.3,0.8-6.1,2.4-8.5c1.6-2.3,4.3-4.4,8-6.3c-3-2-5.2-4.2-6.6-6.5c-1.4-2.3-2.1-4.9-2.1-7.7
				c0-4.4,1.7-7.8,5.1-10.2C-4,410.7,0.7,409.5,6.7,409.5z M-0.1,451.7c0,1.6,0.6,2.9,1.7,3.9c1.1,1,2.7,1.5,4.8,1.5
				c4.6,0,6.9-1.7,6.9-5c0-1.3-0.5-2.5-1.5-3.8c-1-1.2-2.8-2.6-5.4-4.2c-2.3,1.2-4,2.5-5,3.7C0.4,449-0.1,450.3-0.1,451.7z
				 M6.7,420.6c-1.3,0-2.4,0.4-3.4,1.2c-0.9,0.8-1.4,1.8-1.4,3c0,2.2,1.5,4.2,4.6,5.9c1.8-1.1,3.1-2,3.8-2.9c0.7-0.9,1-1.9,1-3
				c0-1.2-0.5-2.3-1.4-3C9,421,7.9,420.6,6.7,420.6z"/>
			<path class="st1" d="M53.6,409.5c6,0,10.7,1.2,14,3.6c3.3,2.4,5,5.9,5,10.3c0,3-0.8,5.7-2.4,7.9c-1.6,2.3-4.1,4.3-7.5,6
				c4.2,2.4,7.2,4.8,8.9,7.2c1.7,2.4,2.6,5,2.6,7.7c0,5.1-1.8,9-5.5,11.8c-3.7,2.8-8.8,4.2-15.4,4.2c-6.7,0-11.9-1.4-15.4-4.1
				c-3.6-2.7-5.4-6.6-5.4-11.7c0-3.3,0.8-6.1,2.4-8.5c1.6-2.3,4.3-4.4,8-6.3c-3-2-5.2-4.2-6.6-6.5c-1.4-2.3-2.1-4.9-2.1-7.7
				c0-4.4,1.7-7.8,5.1-10.2C42.9,410.7,47.6,409.5,53.6,409.5z M46.8,451.7c0,1.6,0.6,2.9,1.7,3.9c1.1,1,2.7,1.5,4.8,1.5
				c4.6,0,6.9-1.7,6.9-5c0-1.3-0.5-2.5-1.5-3.8c-1-1.2-2.8-2.6-5.4-4.2c-2.3,1.2-4,2.5-5,3.7C47.3,449,46.8,450.3,46.8,451.7z
				 M53.5,420.6c-1.3,0-2.4,0.4-3.4,1.2c-0.9,0.8-1.4,1.8-1.4,3c0,2.2,1.5,4.2,4.6,5.9c1.8-1.1,3.1-2,3.8-2.9c0.7-0.9,1-1.9,1-3
				c0-1.2-0.5-2.3-1.4-3C55.9,421,54.8,420.6,53.5,420.6z"/>
		</g>
		<g>
			<path class="st3" d="M-9.2,478.7c0,1-0.3,1.7-1,2.2c-0.6,0.5-1.5,0.8-2.7,0.8h-1v3.5h-1.5v-9.3h2.7c1.2,0,2,0.2,2.6,0.7
				S-9.2,477.8-9.2,478.7z M-13.8,480.5h0.8c0.8,0,1.4-0.1,1.7-0.4s0.5-0.7,0.5-1.3c0-0.5-0.2-0.9-0.5-1.2c-0.3-0.3-0.8-0.4-1.5-0.4
				h-1.1L-13.8,480.5L-13.8,480.5z"/>
			<path class="st3" d="M-0.5,485.2h-5.2v-9.3h5.2v1.3h-3.7v2.5h3.5v1.3h-3.5v2.9h3.7V485.2z"/>
			<path class="st3" d="M4.5,481.5v3.7H3v-9.3h2.6c1.2,0,2.1,0.2,2.7,0.7s0.9,1.1,0.9,2c0,1.2-0.6,2-1.8,2.5l2.6,4.1H8.3l-2.2-3.7
				H4.5z M4.5,480.3h1.1c0.7,0,1.2-0.1,1.5-0.4s0.5-0.7,0.5-1.2s-0.2-0.9-0.5-1.1s-0.9-0.3-1.5-0.3h-1v3H4.5z"/>
			<path class="st3" d="M16.8,477.1c-0.9,0-1.6,0.3-2.1,0.9s-0.7,1.5-0.7,2.6s0.2,2,0.7,2.6s1.2,0.9,2.1,0.9c0.4,0,0.8,0,1.1-0.1
				c0.4-0.1,0.8-0.2,1.1-0.3v1.3c-0.7,0.3-1.6,0.4-2.5,0.4c-1.4,0-2.4-0.4-3.1-1.2c-0.7-0.8-1.1-2-1.1-3.5c0-1,0.2-1.8,0.5-2.5
				c0.4-0.7,0.9-1.3,1.5-1.7s1.5-0.6,2.4-0.6s1.8,0.2,2.6,0.6l-0.5,1.3c-0.3-0.1-0.6-0.3-1-0.4C17.6,477.2,17.2,477.1,16.8,477.1z"
				/>
			<path class="st3" d="M27.9,485.2h-5.2v-9.3h5.2v1.3h-3.7v2.5h3.5v1.3h-3.5v2.9h3.7V485.2z"/>
			<path class="st3" d="M39.2,485.2h-1.9l-4.6-7.4h-0.1v0.4c0.1,0.8,0.1,1.5,0.1,2.2v4.8h-1.4v-9.3h1.8l4.6,7.4l0,0
				c0-0.1,0-0.5-0.1-1.1c0-0.6,0-1.1,0-1.4v-4.9H39v9.3H39.2z"/>
			<path class="st3" d="M46.4,485.2h-1.5v-8h-2.7v-1.3h7v1.3h-2.7v8H46.4z"/>
		</g>
		<g>
			<path class="st4" d="M56.4,481.7c0-1.1,0.2-2.2,0.5-3.1c0.3-1,0.8-1.8,1.4-2.6H59c-0.6,0.8-1.1,1.6-1.4,2.6s-0.5,2-0.5,3.1
				c0,2,0.6,3.9,1.9,5.6h-0.7c-0.6-0.7-1.1-1.6-1.4-2.5C56.6,483.8,56.4,482.8,56.4,481.7z"/>
			<path class="st4" d="M65.4,478.7c0,1-0.2,1.7-0.5,2.2s-0.8,0.7-1.4,0.7c-0.6,0-1-0.3-1.3-0.8s-0.5-1.2-0.5-2.2
				c0-0.9,0.2-1.7,0.5-2.2s0.8-0.7,1.3-0.7c0.6,0,1,0.3,1.4,0.8C65.2,477.1,65.4,477.8,65.4,478.7z M62.3,478.7
				c0,0.8,0.1,1.4,0.3,1.8c0.2,0.4,0.5,0.6,0.9,0.6c0.8,0,1.2-0.8,1.2-2.4c0-0.8-0.1-1.4-0.3-1.8c-0.2-0.4-0.5-0.6-0.9-0.6
				s-0.7,0.2-0.9,0.6S62.3,477.9,62.3,478.7z M69.1,475.9l-5.1,9.3h-0.6l5.1-9.3H69.1z M70.8,482.4c0,1-0.2,1.7-0.5,2.2
				s-0.8,0.7-1.4,0.7c-0.6,0-1-0.3-1.3-0.8s-0.5-1.2-0.5-2.2s0.2-1.7,0.5-2.2s0.8-0.7,1.3-0.7c0.6,0,1,0.3,1.4,0.8
				S70.8,481.5,70.8,482.4z M67.7,482.4c0,0.8,0.1,1.4,0.3,1.8c0.2,0.4,0.5,0.6,0.9,0.6c0.8,0,1.2-0.8,1.2-2.3
				c0-1.6-0.4-2.3-1.2-2.3c-0.4,0-0.7,0.2-0.9,0.6C67.8,481.1,67.7,481.7,67.7,482.4z"/>
			<path class="st4" d="M76,481.7c0,1.1-0.2,2.2-0.5,3.1c-0.3,1-0.8,1.8-1.4,2.5h-0.7c1.3-1.7,1.9-3.6,1.9-5.6
				c0-1.1-0.2-2.1-0.5-3.1s-0.8-1.8-1.4-2.6h0.7c0.6,0.7,1.1,1.6,1.4,2.6C75.9,479.5,76,480.5,76,481.7z"/>
		</g>
		<path class="st1" d="M133,446.3c0-6.8-5.5-12.2-12.2-12.2c-6.8,0-12.2,5.5-12.2,12.2c0,6.8,5.5,12.2,12.2,12.2
			C127.6,458.5,133,453.1,133,446.3"/>
		<path class="st1" d="M105.7,381.6c0-6.8-5.5-12.2-12.2-12.2c-6.8,0-12.2,5.5-12.2,12.2c0,6.8,5.5,12.2,12.2,12.2
			C100.3,393.8,105.7,388.4,105.7,381.6"/>
	</g>
	<g class="st2">
		<path class="st4" d="M-4.4,601.8c0,4.4-1.1,7.8-3.3,10.2c-2.2,2.4-5.3,3.6-9.3,3.6c-4.1,0-7.2-1.2-9.4-3.6
			c-2.2-2.4-3.3-5.8-3.3-10.3c0-4.4,1.1-7.9,3.3-10.2c2.2-2.4,5.3-3.6,9.4-3.6c4,0,7.1,1.2,9.3,3.6C-5.4,594-4.4,597.4-4.4,601.8z
			 M-24.9,601.8c0,3.3,0.7,5.8,2,7.5c1.3,1.7,3.3,2.6,5.9,2.6c2.6,0,4.6-0.8,5.9-2.5c1.3-1.7,2-4.2,2-7.6c0-3.3-0.7-5.8-2-7.5
			c-1.3-1.7-3.3-2.6-5.9-2.6c-2.6,0-4.6,0.9-6,2.6S-24.9,598.5-24.9,601.8z"/>
		<path class="st4" d="M19.3,596.5c0,2.8-0.9,5-2.8,6.5c-1.8,1.5-4.5,2.2-7.9,2.2H5.8v10.1H1.4v-26.9h7.8c3.4,0,5.9,0.7,7.6,2.1
			C18.4,591.8,19.3,593.9,19.3,596.5z M5.8,601.6h2.3c2.3,0,3.9-0.4,5-1.2c1.1-0.8,1.6-2,1.6-3.7c0-1.5-0.5-2.7-1.4-3.5
			c-0.9-0.8-2.4-1.1-4.4-1.1H5.8V601.6z"/>
		<path class="st4" d="M39.9,615.3H24.6v-26.9h15.2v3.7H29v7.3h10.1v3.7H29v8.5h10.8V615.3z"/>
		<path class="st4" d="M68.1,615.3h-5.4l-13.2-21.5h-0.1l0.1,1.2c0.2,2.3,0.3,4.4,0.3,6.3v14h-4v-26.9H51l13.2,21.3h0.1
			c0-0.3-0.1-1.3-0.1-3.1c-0.1-1.8-0.1-3.2-0.1-4.2v-14.1h4V615.3z"/>
		<path class="st4" d="M90.4,615.3H75.2v-26.9h15.2v3.7H79.6v7.3h10.1v3.7H79.6v8.5h10.8V615.3z"/>
		<path class="st4" d="M118.1,601.6c0,4.4-1.2,7.8-3.7,10.2c-2.5,2.4-6,3.5-10.7,3.5h-7.5v-26.9h8.3c4.3,0,7.6,1.2,10,3.5
			C117,594.2,118.1,597.4,118.1,601.6z M113.5,601.8c0-6.4-3-9.7-9-9.7h-3.8v19.5h3.1C110.3,611.6,113.5,608.3,113.5,601.8z"/>
	</g>
	<g class="st2">
		<path class="st4" d="M-10.5,572c0,3.1-0.8,5.4-2.5,7c-1.7,1.6-4.1,2.4-7.2,2.4h-5.1v-18.6h5.7c2.9,0,5.1,0.8,6.7,2.4
			C-11.3,566.9-10.5,569.1-10.5,572z M-12.8,572.1c0-2.4-0.6-4.2-1.8-5.5c-1.2-1.2-3-1.8-5.4-1.8h-3.1v14.8h2.6
			c2.6,0,4.5-0.6,5.8-1.9C-13.5,576.4-12.8,574.6-12.8,572.1z"/>
		<path class="st4" d="M9.7,572.2c0,3-0.8,5.3-2.3,7c-1.5,1.7-3.6,2.6-6.3,2.6c-2.7,0-4.8-0.8-6.3-2.5c-1.5-1.7-2.2-4-2.2-7.1
			c0-3,0.7-5.4,2.2-7c1.5-1.7,3.6-2.5,6.3-2.5c2.7,0,4.7,0.8,6.2,2.5C9,566.8,9.7,569.2,9.7,572.2z M-5.1,572.2
			c0,2.5,0.5,4.4,1.6,5.7s2.6,1.9,4.7,1.9c2.1,0,3.6-0.6,4.7-1.9c1-1.3,1.6-3.2,1.6-5.7c0-2.5-0.5-4.4-1.6-5.7
			c-1-1.3-2.6-1.9-4.6-1.9c-2.1,0-3.6,0.7-4.7,1.9S-5.1,569.7-5.1,572.2z"/>
		<path class="st4" d="M21.8,564.6c-2,0-3.6,0.7-4.8,2c-1.2,1.4-1.8,3.2-1.8,5.6c0,2.4,0.6,4.3,1.7,5.6s2.8,2,4.9,2
			c1.3,0,2.8-0.2,4.4-0.7v1.9c-1.3,0.5-2.9,0.7-4.8,0.7c-2.7,0-4.8-0.8-6.3-2.5c-1.5-1.7-2.2-4-2.2-7.1c0-1.9,0.4-3.6,1.1-5
			c0.7-1.4,1.7-2.5,3.1-3.3c1.3-0.8,2.9-1.2,4.8-1.2c1.9,0,3.6,0.4,5.1,1.1l-0.9,1.9C24.6,564.9,23.2,564.6,21.8,564.6z"/>
		<path class="st4" d="M44.3,562.9v12c0,2.1-0.6,3.8-1.9,5c-1.3,1.2-3,1.8-5.3,1.8c-2.2,0-4-0.6-5.2-1.8s-1.8-2.9-1.8-5v-12h2.2V575
			c0,1.5,0.4,2.7,1.3,3.6c0.8,0.8,2.1,1.2,3.7,1.2c1.6,0,2.8-0.4,3.6-1.2c0.8-0.8,1.3-2,1.3-3.6v-12.1H44.3z"/>
		<path class="st4" d="M57.4,581.5L51.1,565H51c0.1,1.3,0.2,2.9,0.2,4.6v11.8h-2v-18.6h3.2l5.9,15.3h0.1l5.9-15.3h3.2v18.6h-2.2v-12
			c0-1.4,0.1-2.9,0.2-4.5h-0.1l-6.3,16.4H57.4z"/>
		<path class="st4" d="M83,581.5H72.6v-18.6H83v1.9h-8.2v6h7.7v1.9h-7.7v6.8H83V581.5z"/>
		<path class="st4" d="M101.6,581.5h-2.5L89,565.9h-0.1c0.1,1.8,0.2,3.5,0.2,5v10.5h-2v-18.6h2.4l10.1,15.5h0.1c0-0.2-0.1-1-0.1-2.2
			c-0.1-1.2-0.1-2.1-0.1-2.7v-10.6h2V581.5z"/>
		<path class="st4" d="M112.4,581.5h-2.2v-16.6h-5.9v-1.9h13.9v1.9h-5.9V581.5z"/>
	</g>
	<g>
		<circle class="st5" cx="-62.3" cy="588.4" r="20.2"/>
		<g>
			<path class="st6" d="M-54.3,585l-7.8,7.8l-1.5,1.5c-0.2,0.2-0.5,0.3-0.7,0.3c-0.3,0-0.5-0.1-0.7-0.3l-1.5-1.5l-3.9-3.9
				c-0.2-0.2-0.3-0.5-0.3-0.7c0-0.2,0.1-0.5,0.3-0.7l1.5-1.5c0.2-0.2,0.5-0.3,0.7-0.3c0.3,0,0.5,0.1,0.7,0.3l3.2,3.2l7.1-7.1
				c0.2-0.2,0.5-0.3,0.7-0.3c0.3,0,0.5,0.1,0.7,0.3l1.5,1.5c0.2,0.2,0.3,0.5,0.3,0.7C-53.9,584.6-54.1,584.8-54.3,585z"/>
		</g>
	</g>
</g>
</svg>
