<?xml version="1.0" encoding="utf-8"?>
<!-- Generator: Adobe Illustrator 18.0.0, SVG Export Plug-In . SVG Version: 6.00 Build 0)  -->
<!DOCTYPE svg PUBLIC "-//W3C//DTD SVG 1.1//EN" "http://www.w3.org/Graphics/SVG/1.1/DTD/svg11.dtd">
<svg version="1.1" id="Layer_1" xmlns="http://www.w3.org/2000/svg" xmlns:xlink="http://www.w3.org/1999/xlink" x="0px" y="0px"
	 viewBox="0 -235 2151 1876.5" enable-background="new 0 -235 2151 1876.5" xml:space="preserve">
<g>
	<path fill="#D4DCEE" d="M1355.1,1341.4c-4-3.9-9.1-6.2-14.8-6.2h-311.9c-5.4,0-10.5,2.2-14.4,6.2c-3.9,4-6,9.2-6,14.8v458.2
		c0,11.5,10,20.9,22.4,20.9H1339c6,0,11.3-2.2,15.5-6.1c4.3-4.1,6.4-9.6,6.4-15.7v-457.2C1361,1350.7,1359.1,1345.4,1355.1,1341.4z
		 M1339.1,1829.3h-308.7c-9.3,0-17.4-6.4-17.4-14.9v-458.2c0-4.1,1.8-7.8,4.7-10.7c2.8-2.9,6.8-4.3,10.7-4.3h311.9
		c4.3,0,8.2,1.4,11.2,4.3c2.9,2.9,4.5,6.5,4.5,10.6v457.2c0,4.6-1.8,8.5-5,11.5C1347.9,1827.9,1343.6,1829.3,1339.1,1829.3z"/>
	<path fill="#D4DCEE" d="M1337.2,1380.3h-304.8c-1.1,0-2.4,0.7-2.4,1.8v406.4c0,1.1,1.3,1.9,2.4,1.9h304.8c1.1,0,1.8-0.8,1.8-1.9
		V1382C1339,1380.9,1338.3,1380.3,1337.2,1380.3z M1337,1788.3h-305v-406h305V1788.3z"/>
	<path fill="#D4DCEE" d="M1184.6,1800.4c-6.6,0-11.9,5.3-11.9,11.9c0,0.1,0,0.2,0,0.3c0.1,6.4,5.4,11.6,11.9,11.6
		c6.6,0,11.9-5.3,11.9-11.9C1196.5,1805.7,1191.1,1800.4,1184.6,1800.4z M1184.6,1822.6c-2.7,0-5.3-1.1-7.2-2.9
		c-1.9-1.9-3.2-4.4-3.2-7.1l-0.1-0.1c0-0.1,0-0.1,0-0.1c0-5.7,4.8-10.3,10.4-10.3c5.7,0,10.4,4.6,10.4,10.3
		C1194.8,1818,1190.2,1822.6,1184.6,1822.6z"/>
	<path fill="#D4DCEE" d="M1186.8,1807.3h-4.7c-1.1,0-2.2,1.3-2.2,2.4v4.7c0,1.1,1,1.9,2.2,1.9h4.7c1.1,0,2.2-0.8,2.2-1.9v-4.7
		C1189,1808.6,1188,1807.3,1186.8,1807.3z M1187,1814.4c0,0.2,0.1,0.9-0.2,0.9h-4.7c-0.2,0-0.2-0.7-0.2-0.9v-4.7
		c0-0.2-0.1-0.4,0.2-0.4h4.7c0.2,0,0.2,0.2,0.2,0.4V1814.4z"/>
	<path fill="#D4DCEE" d="M1184.6,1362.7c1.6,0,3-1.3,3-3c0-1.6-1.3-3-3-3c-1.7,0-3,1.3-3,3
		C1181.6,1361.4,1182.9,1362.7,1184.6,1362.7z M1184.6,1357.9c1,0,1.8,0.8,1.8,1.8c0,1-0.8,1.8-1.8,1.8c-1,0-1.8-0.8-1.8-1.8
		C1182.8,1358.7,1183.6,1357.9,1184.6,1357.9z"/>
	<path fill="#D4DCEE" d="M1176,1361.4c0.9,0,1.6-0.7,1.6-1.6c0-0.9-0.7-1.6-1.6-1.6c-0.9,0-1.6,0.7-1.6,1.6
		C1174.4,1360.7,1175.2,1361.4,1176,1361.4z"/>
</g>
<g opacity="0.55">
	<path fill="#D4DCEE" d="M2027.1,840.5c-4-3.9-9.1-6.2-14.8-6.2h-311.9c-5.4,0-10.5,2.3-14.4,6.2c-3.9,4-6,9.3-6,14.8v458.2
		c0,11.5,10,20.8,22.4,20.8H2011c6,0,11.3-2.1,15.5-6c4.3-4.1,6.4-9.6,6.4-15.7V855.3C2033,849.7,2031.1,844.4,2027.1,840.5z
		 M2011.1,1329.3h-308.7c-9.3,0-17.4-7.3-17.4-15.8V855.3c0-4.1,1.8-7.8,4.7-10.7c2.8-2.9,6.8-4.3,10.7-4.3h311.9
		c4.3,0,8.2,1.5,11.2,4.4c2.9,2.9,4.5,6.6,4.5,10.7v457.2c0,4.6-1.8,8.9-5,11.9C2019.9,1327.4,2015.6,1329.3,2011.1,1329.3z"/>
	<path fill="#D4DCEE" d="M2009.2,879.3h-304.8c-1.1,0-2.4,0.7-2.4,1.8v406.4c0,1.1,1.3,1.8,2.4,1.8h304.8c1.1,0,1.8-0.7,1.8-1.8
		V881.1C2011,880,2010.3,879.3,2009.2,879.3z M2009,1287.3h-305v-406h305V1287.3z"/>
	<path fill="#D4DCEE" d="M1856.6,1299.5c-6.6,0-11.9,5.3-11.9,11.9c0,0.1,0,0.2,0,0.3c0.1,6.4,5.4,11.6,11.9,11.6
		c6.6,0,11.9-5.3,11.9-11.9S1863.1,1299.5,1856.6,1299.5z M1856.6,1321.7c-2.7,0-5.3-1.1-7.2-2.9c-1.9-1.9-3.2-4.4-3.2-7.1l-0.1-0.1
		c0-0.1,0-0.1,0-0.1c0-5.7,4.8-10.3,10.4-10.3c5.7,0,10.4,4.6,10.4,10.3C1866.8,1317.1,1862.2,1321.7,1856.6,1321.7z"/>
	<path fill="#D4DCEE" d="M1858.8,1306.3h-4.7c-1.1,0-2.2,1.3-2.2,2.4v4.7c0,1.1,1,1.8,2.2,1.8h4.7c1.1,0,2.2-0.7,2.2-1.8v-4.7
		C1861,1307.6,1860,1306.3,1858.8,1306.3z M1859,1313.4c0,0.2,0.1,0.8-0.2,0.8h-4.7c-0.2,0-0.2-0.6-0.2-0.8v-4.7
		c0-0.2-0.1-0.4,0.2-0.4h4.7c0.2,0,0.2,0.2,0.2,0.4V1313.4z"/>
	<path fill="#D4DCEE" d="M1856.6,861.8c1.6,0,3-1.3,3-3s-1.3-3-3-3c-1.7,0-3,1.3-3,3S1854.9,861.8,1856.6,861.8z M1856.6,857
		c1,0,1.8,0.8,1.8,1.8c0,1-0.8,1.8-1.8,1.8c-1,0-1.8-0.8-1.8-1.8C1854.8,857.8,1855.6,857,1856.6,857z"/>
	<path fill="#D4DCEE" d="M1848,860.5c0.9,0,1.6-0.7,1.6-1.6c0-0.9-0.7-1.6-1.6-1.6c-0.9,0-1.6,0.7-1.6,1.6
		C1846.4,859.8,1847.2,860.5,1848,860.5z"/>
</g>
<g opacity="0.27">
	<path fill="#D4DCEE" d="M2116.1,1399.8c-4-4.3-9.4-6.6-15.5-6.6h-457.2c-5.6,0-11.1,2.1-15,6.1c-3.9,4-6.3,9.2-6.3,15v311.9
		c0,5.4,2.4,10.4,6.4,14.2c4,3.9,9.4,5.9,15,5.9h458.2c11.5,0,20.5-9.7,20.5-22.1v-308.7C2122,1409.5,2120,1404,2116.1,1399.8z
		 M2101.5,1741.3h-458.2c-4.1,0-8-1.7-10.9-4.6c-2.9-2.8-4.5-6.7-4.5-10.6v-311.9c0-4.3,1.6-8.4,4.5-11.3c2.9-2.9,6.7-4.7,10.8-4.7
		h457.2c4.6,0,8.8,1.9,11.8,5.1c2.9,3.1,4.6,7.5,4.6,12.1v308.7C2117,1733.5,2110,1741.3,2101.5,1741.3z"/>
	<path fill="#D4DCEE" d="M2099.4,1558.1c-6.6,0-11.9,5.3-11.9,11.9c0,6.6,5.3,11.9,11.9,11.9c0.1,0,0.2,0,0.3,0
		c6.4-0.1,11.6-5.4,11.6-11.9C2111.3,1563.4,2106,1558.1,2099.4,1558.1z M2106.8,1577.2c-1.9,1.9-4.4,3-7.1,3.1h-0.1
		c-0.1,0-0.1,0-0.1,0c-5.7,0-10.3-4.6-10.3-10.3c0-5.7,4.6-10.3,10.3-10.3c5.7,0,10.3,4.6,10.3,10.3
		C2109.7,1572.7,2108.7,1575.3,2106.8,1577.2z"/>
	<path fill="#D4DCEE" d="M2104,1567.3c0-1.1-0.9-2-2-2h-5c-1.1,0-2,0.9-2,2v5c0,1.1,0.9,2,2,2h5c1.1,0,2-0.9,2-2V1567.3z
		 M2102,1572.4c0,0.2-0.3,0.9-0.5,0.9h-4.7c-0.2,0-0.8-0.7-0.8-0.9v-4.7c0-0.2,0.5-0.4,0.8-0.4h4.7c0.2,0,0.5,0.2,0.5,0.4V1572.4z"
		/>
	<path fill="#D4DCEE" d="M2075.5,1415.3h-406.4c-1.1,0-2.1,1-2.1,2.1v304.8c0,1.1,1,2.1,2.1,2.1h406.4c1.1,0,2.5-1,2.5-2.1v-304.8
		C2078,1416.3,2076.6,1415.3,2075.5,1415.3z M2076,1722.3h-407v-305h407V1722.3z"/>
	<path fill="#D4DCEE" d="M1646.8,1567c-1.6,0-3,1.3-3,3c0,1.7,1.3,3,3,3c1.6,0,3-1.3,3-3C1649.8,1568.3,1648.5,1567,1646.8,1567z
		 M1646.8,1571.8c-1,0-1.8-0.8-1.8-1.8c0-1,0.8-1.8,1.8-1.8c1,0,1.8,0.8,1.8,1.8C1648.6,1571,1647.8,1571.8,1646.8,1571.8z"/>
	<path fill="#D4DCEE" d="M1646.9,1576.9c-0.9,0-1.6,0.7-1.6,1.6c0,0.9,0.7,1.6,1.6,1.6c0.9,0,1.6-0.7,1.6-1.6
		C1648.5,1577.6,1647.8,1576.9,1646.9,1576.9z"/>
</g>
<g opacity="0.66">
	<g>
		<g>
			<path fill="#D4DCEE" d="M1377,1268.7c4.3-4.4,6.7-10.1,6.7-16.3v-2h0.8h0.6l0.4-0.5l0.6-0.8l0.2-0.3v-0.4v-22.4v-0.3l-0.2-0.3
				l-0.6-1l-0.3-0.6h-0.7h-0.8v-76.6c0-6.2-2.4-11.9-6.7-16.3c-4.3-4.4-10.1-6.8-16.3-6.8h-20v-0.4v-0.5l-0.3-0.3l-0.6-0.6l-0.3-0.3
				h-0.5h-13.3h-0.5l-0.3,0.3l-0.6,0.6l-0.3,0.3v0.5v0.4h-13.1v-0.4v-0.5l-0.3-0.3l-0.6-0.6l-0.3-0.3h-0.5h-9.9h-0.5l-0.3,0.3
				l-0.6,0.6l-0.3,0.3v0.5v0.4h-12.9v-0.4v-0.5l-0.3-0.3l-0.6-0.6l-0.3-0.3h-0.5h-9.9h-0.5l-0.3,0.3l-0.6,0.6l-0.3,0.3v0.5v0.4
				h-181.6c-6.1,0-11.9,2.4-16.3,6.8c-4.3,4.4-6.7,10.1-6.7,16.3v105.1c0,6.2,2.4,11.9,6.7,16.3c4.3,4.4,10.1,6.8,16.3,6.8h271.4
				C1366.9,1275.5,1372.7,1273.1,1377,1268.7z M1360.7,1270.7h-271.4c-10.1,0-18.3-8.2-18.3-18.3v-105.1c0-10.1,8.2-18.3,18.3-18.3
				h271.4c10.1,0,18.3,8.2,18.3,18.3v105.1C1379,1262.5,1370.8,1270.7,1360.7,1270.7z"/>
		</g>
		<g>
			<path fill="#D4DCEE" d="M1352.6,1188.5v21.8c0,1.6,1.3,3,3,3c1.6,0,3-1.3,3-3v-21.8c0-1.6-1.3-3-3-3
				C1353.9,1185.6,1352.6,1186.9,1352.6,1188.5z M1357,1188.5v21.8c0,0.8-0.6,1.4-1.4,1.4c-0.8,0-1.4-0.6-1.4-1.4v-21.8
				c0-0.8,0.6-1.4,1.4-1.4C1356.3,1187.2,1357,1187.8,1357,1188.5z"/>
		</g>
		<g>
			<path fill="#D4DCEE" d="M1339.3,1263.2v-127c0-0.9-0.7-1.6-1.6-1.6h-225.4c-0.9,0-1.6,0.7-1.6,1.6v127c0,0.9,0.7,1.6,1.6,1.6
				h225.4C1338.6,1264.7,1339.3,1264,1339.3,1263.2z M1112.3,1263.2v-127h225.4v127H1112.3z"/>
		</g>
		<g>
			<path fill="#D4DCEE" d="M1103.6,1199.8c0-7.4-6-13.4-13.4-13.4s-13.4,6-13.4,13.4s6,13.4,13.4,13.4
				C1097.6,1213.2,1103.6,1207.2,1103.6,1199.8z M1078.4,1199.8c0-6.5,5.3-11.8,11.8-11.8s11.8,5.3,11.8,11.8
				c0,6.5-5.3,11.8-11.8,11.8S1078.4,1206.3,1078.4,1199.8z"/>
		</g>
		<g>
			<path fill="#D4DCEE" d="M1364.2,1199.7c0,1.9,1.5,3.4,3.4,3.4s3.4-1.5,3.4-3.4c0-1.9-1.5-3.4-3.4-3.4
				S1364.2,1197.8,1364.2,1199.7z M1369.7,1199.7c0,1.2-1,2.2-2.2,2.2s-2.2-1-2.2-2.2s1-2.2,2.2-2.2
				C1368.8,1197.5,1369.7,1198.5,1369.7,1199.7z"/>
		</g>
		<g>
			<circle fill="#D4DCEE" cx="1367.6" cy="1199.7" r="1.2"/>
		</g>
	</g>
</g>
<g opacity="0.55">
	<path fill="#D4DCEE" d="M1569.7,1502.3l-0.6-0.6l-0.3-0.4h-0.5h-0.3v-181.5c0-6.2-2.4-11.7-6.8-16c-4.4-4.3-10.2-6.5-16.3-6.5
		h-105.1c-6.2,0-11.8,2.2-16.2,6.5c-4.3,4.4-6.6,9.9-6.6,16v271.4c0,6.1,2.2,11.9,6.6,16.3c4.4,4.4,10,6.7,16.2,6.7h2.2v0.8v0.6
		l0.3,0.4l0.7,0.8l0.2,0.5h0.4h22.4h0.3l0.3-0.4l0.9-0.7l0.5-0.4v-0.7v-0.8h76.9c6.2,0,12-2.4,16.3-6.7c4.3-4.3,6.8-10.1,6.8-16.3
		v-20h0.3h0.5l0.4-0.4l0.5-0.6l0.3-0.4v-0.5v-13.3v-0.5l-0.3-0.3l-0.6-0.6l-0.3-0.4h-0.5h-0.3v-13h0.3h0.5l0.4-0.4l0.5-0.6l0.3-0.3
		v-0.5v-9.9v-0.5l-0.3-0.3l-0.6-0.4l-0.3-0.1h-0.5h-0.3v-13h0.3h0.5l0.4-0.6l0.5-0.7l0.3-0.4v-0.5v-9.9v-0.5L1569.7,1502.3z
		 M1544.9,1609.3h-105.1c-10.1,0-18.8-7.9-18.8-18v-271.4c0-10.1,8.7-18.6,18.8-18.6h105.1c10.1,0,18.1,8.5,18.1,18.6v271.4
		C1563,1601.4,1554.9,1609.3,1544.9,1609.3z"/>
	<path fill="#D4DCEE" d="M1556,1341.3h-127c-0.9,0-2,0.7-2,1.6v225.4c0,0.9,1.1,2,2,2h127c0.9,0,2-1.2,2-2v-225.4
		C1558,1342,1556.9,1341.3,1556,1341.3z M1556,1568.3h-127v-225h127V1568.3z"/>
	<path fill="#D4DCEE" d="M1503.6,1583.3h-21.8c-1.7,0-3,1.4-3,3c0,1.7,1.3,3,3,3h21.8c1.6,0,3-1.4,3-3
		C1506.6,1584.6,1505.3,1583.3,1503.6,1583.3z M1503.6,1587.3h-21.8c-0.8,0-1.4-0.7-1.4-1.5c0-0.8,0.6-1.5,1.4-1.5h21.8
		c0.8,0,1.4,0.7,1.4,1.5C1505,1586.6,1504.4,1587.3,1503.6,1587.3z"/>
	<path fill="#D4DCEE" d="M1492.4,1334.1c7.4,0,13.4-6,13.4-13.4c0-7.4-6-13.4-13.4-13.4c-7.4,0-13.4,6-13.4,13.4
		C1479,1328.1,1485,1334.1,1492.4,1334.1z M1492.4,1308.9c6.5,0,11.8,5.3,11.8,11.8c0,6.5-5.3,11.8-11.8,11.8
		c-6.5,0-11.8-5.3-11.8-11.8C1480.6,1314.2,1485.9,1308.9,1492.4,1308.9z"/>
	<path fill="#D4DCEE" d="M1492.5,1594.7c-1.9,0-3.4,1.5-3.4,3.4c0,1.9,1.5,3.4,3.4,3.4s3.4-1.5,3.4-3.4
		C1495.9,1596.2,1494.4,1594.7,1492.5,1594.7z M1492.5,1600.3c-1.2,0-2.2-1-2.2-2.2c0-1.2,1-2.2,2.2-2.2c1.2,0,2.2,1,2.2,2.2
		C1494.7,1599.3,1493.7,1600.3,1492.5,1600.3z"/>
	<path fill="#D4DCEE" d="M1492.5,1597c-0.7,0-1.2,0.5-1.2,1.2c0,0.6,0.5,1.2,1.2,1.2c0.7,0,1.2-0.5,1.2-1.2
		C1493.7,1597.5,1493.2,1597,1492.5,1597z"/>
</g>
<g opacity="0.18">
	<path fill="#D4DCEE" d="M1611,904.1c-4.4-4.3-10.4-6.9-16.5-6.9h-1.5v-0.5v-0.6l-0.7-0.4l-0.9-0.4l-0.4-0.1h-0.4h-22.4h-0.3l-0.3,0
		l-1,0.5l-0.6,0.3v0.7v0.5h-76.6c-6.2,0-12.1,2.5-16.5,6.9c-4.4,4.3-6.9,10.2-6.9,16.4v19.7h0h-0.5l-0.4,0.5l-0.7,0.7l-0.4,0.4v0.5
		v13.3v0.5l0.4,0.3l0.6,0.5l0.4,0.3h0.5h0v13h0h-0.5l-0.4,0.5l-0.7,0.7l-0.4,0.4v0.5v9.9v0.5l0.4,0.3l0.6,0.7l0.4,0.5h0.5h0v13h0
		h-0.5l-0.4,0.2l-0.7,0.5l-0.4,0.3v0.5v9.9v0.5l0.4,0.3l0.6,0.5l0.4,0.3h0.5h0V1192c0,6.2,2.6,12.1,6.9,16.4
		c4.3,4.3,10.3,6.9,16.5,6.9h105.1c6.1,0,12.2-2.5,16.5-6.9c4.3-4.4,7-10.3,7-16.4V920.5C1618,914.4,1615.4,908.5,1611,904.1z
		 M1594.5,1210.3h-105.1c-10.1,0-18.4-8.2-18.4-18.3V920.5c0-10.1,8.3-18.2,18.4-18.2h105.1c10.1,0,18.5,8.2,18.5,18.2V1192
		C1613,1202,1604.6,1210.3,1594.5,1210.3z"/>
	<path fill="#D4DCEE" d="M1605.3,942.3h-127c-0.9,0-1.3,0.4-1.3,1.3V1169c0,0.9,0.4,1.3,1.3,1.3h127c0.9,0,1.7-0.4,1.7-1.3V943.6
		C1607,942.7,1606.1,942.3,1605.3,942.3z M1605,1169.3h-127v-226h127V1169.3z"/>
	<path fill="#D4DCEE" d="M1530.7,928.3h21.8c1.6,0,3-1.4,3-3c0-1.7-1.3-3-3-3h-21.8c-1.7,0-3,1.4-3,3
		C1527.7,926.9,1529,928.3,1530.7,928.3z M1530.7,924.3h21.8c0.8,0,1.4,0.7,1.4,1.5c0,0.8-0.6,1.5-1.4,1.5h-21.8
		c-0.8,0-1.4-0.7-1.4-1.5C1529.3,925,1529.9,924.3,1530.7,924.3z"/>
	<path fill="#D4DCEE" d="M1541.9,1177.7c-7.4,0-13.4,6-13.4,13.4c0,7.4,6,13.4,13.4,13.4c7.4,0,13.4-6,13.4-13.4
		S1549.3,1177.7,1541.9,1177.7z M1541.9,1202.9c-6.5,0-11.8-5.3-11.8-11.8c0-6.5,5.3-11.8,11.8-11.8s11.8,5.3,11.8,11.8
		C1553.7,1197.6,1548.4,1202.9,1541.9,1202.9z"/>
	<path fill="#D4DCEE" d="M1541.8,917.1c1.9,0,3.4-1.5,3.4-3.4s-1.5-3.4-3.4-3.4c-1.9,0-3.4,1.5-3.4,3.4S1539.9,917.1,1541.8,917.1z
		 M1541.8,911.5c1.2,0,2.2,1,2.2,2.2s-1,2.2-2.2,2.2c-1.2,0-2.2-1-2.2-2.2S1540.6,911.5,1541.8,911.5z"/>
	<path fill="#D4DCEE" d="M1541.8,914.9c0.7,0,1.2-0.5,1.2-1.2c0-0.7-0.5-1.2-1.2-1.2c-0.7,0-1.2,0.5-1.2,1.2
		C1540.6,914.3,1541.1,914.9,1541.8,914.9z"/>
</g>
<g opacity="0.28">
	<path fill="#D4DCEE" d="M1398.1,754.2c-4.3-4.3-10.3-6.9-16.5-6.9h-1.6v-0.4v-0.6l-0.6-0.3l-0.9-0.5l-0.4-0.1h-0.4h-22.4h-0.3
		l-0.3,0.1l-1.1,0.6l-0.6,0.3v0.7v0.4h-76.5c-6.1,0-12.2,2.6-16.5,6.9c-4.3,4.4-7,10.3-7,16.5v19.6h0.1h-0.5l-0.3,0.6l-0.7,0.7
		l-0.5,0.5v0.5v13.3v0.5l0.5,0.3l0.7,0.4l0.4,0.2h0.5h-0.1v13h0.1h-0.5l-0.3,0.6l-0.7,0.7l-0.5,0.5v0.5v9.9v0.5l0.5,0.3l0.7,0.6
		l0.4,0.4h0.5h-0.1v13h0.1h-0.5l-0.3,0.2l-0.7,0.5l-0.5,0.3v0.5v9.9v0.5l0.5,0.3l0.7,0.4l0.4,0.2h0.5h-0.1v181.9
		c0,6.2,2.6,12,7,16.3c4.4,4.3,10.4,6.8,16.5,6.8h105.1c6.2,0,12.1-2.5,16.5-6.8s6.9-10.2,6.9-16.3V770.7
		C1405,764.5,1402.4,758.6,1398.1,754.2z M1381.6,1060.3h-105.1c-10.1,0-18.5-8.1-18.5-18.2V770.7c0-10.1,8.4-18.4,18.5-18.4h105.1
		c10.1,0,18.4,8.3,18.4,18.4v271.5C1400,1052.2,1391.7,1060.3,1381.6,1060.3z"/>
	<path fill="#D4DCEE" d="M1392.4,792.3h-127c-0.9,0-1.4,0.5-1.4,1.4v225.4c0,0.9,0.5,1.2,1.4,1.2h127c0.9,0,1.6-0.3,1.6-1.2V793.7
		C1394,792.8,1393.2,792.3,1392.4,792.3z M1392,1019.3h-127v-226h127V1019.3z"/>
	<path fill="#D4DCEE" d="M1317.8,779.3h21.8c1.6,0,3-1.4,3-3c0-1.6-1.3-3-3-3h-21.8c-1.6,0-3,1.4-3,3
		C1314.8,777.9,1316.1,779.3,1317.8,779.3z M1317.8,774.3h21.8c0.8,0,1.4,0.7,1.4,1.5c0,0.8-0.6,1.5-1.4,1.5h-21.8
		c-0.8,0-1.4-0.7-1.4-1.5C1316.4,775,1317,774.3,1317.8,774.3z"/>
	<path fill="#D4DCEE" d="M1329,1027.9c-7.4,0-13.4,6-13.4,13.4c0,7.4,6,13.4,13.4,13.4s13.4-6,13.4-13.4
		C1342.4,1033.9,1336.4,1027.9,1329,1027.9z M1329,1053.1c-6.5,0-11.8-5.3-11.8-11.8s5.3-11.8,11.8-11.8c6.5,0,11.8,5.3,11.8,11.8
		S1335.5,1053.1,1329,1053.1z"/>
	<path fill="#D4DCEE" d="M1328.9,767.2c1.9,0,3.4-1.5,3.4-3.4s-1.5-3.4-3.4-3.4s-3.4,1.5-3.4,3.4S1327,767.2,1328.9,767.2z
		 M1328.9,761.7c1.2,0,2.2,1,2.2,2.2c0,1.2-1,2.2-2.2,2.2c-1.2,0-2.2-1-2.2-2.2C1326.7,762.7,1327.7,761.7,1328.9,761.7z"/>
	<path fill="#D4DCEE" d="M1328.9,765c0.7,0,1.2-0.5,1.2-1.2s-0.5-1.2-1.2-1.2s-1.2,0.5-1.2,1.2C1327.7,764.5,1328.2,765,1328.9,765z
		"/>
</g>
<g>
	<path fill="#FFFFFF" d="M1856.5,1030.2c-24.9,0-45.1,20.2-45.1,45.1s20.2,45.1,45.1,45.1s45.1-20.2,45.1-45.1
		S1881.4,1030.2,1856.5,1030.2z M1882.2,1078.8c-8.3,8.4-16.7,16.7-25,25c-0.1,0.1-0.2,0.2-0.4,0.3c-1.5-1.4-3.3-2.6-3.2-5
		c0.1-1.3,0.5-2.3,1.4-3.2c4.4-4.4,8.8-8.8,13.2-13.2c1.5-1.5,1.7-2.5,0.8-3.4c-1-1-1.9-0.8-3.5,0.8c-5.4,5.5-10.9,10.9-16.5,16.6
		l-9.5-9.6c-2.1-2.1-2.2-4.7,0-6.9c4.4-4.4,8.8-8.8,13.2-13.2c0.3-0.3,0.6-0.6,0.9-0.9c0.6-0.8,0.5-1.7-0.2-2.4
		c-0.7-0.7-1.6-0.8-2.4-0.2c-0.4,0.3-0.8,0.7-1.1,1l-16.3,16.6c-1.9-1.8-3.9-3.2-3.9-5.9c0-1.4,0.5-2.7,1.5-3.6
		c8.4-8.4,16.8-16.8,25.1-25.1c0.1-0.1,0.3-0.2,0.5-0.4c3.5,3.5,7,7,10.4,10.4c1.6,1.7,1.5,4.4-0.3,6.1
		c-5.4,5.4-10.8,10.8-16.2,16.2c-0.2,0.2-0.5,0.5-0.7,0.7c-1.1,1.1-1.1,2.2-0.2,3c0.9,0.8,1.9,0.7,2.9-0.4l19.7-20l9.6,9.3
		C1884.4,1073.5,1884.4,1076.6,1882.2,1078.8z"/>
	<path fill="#FFFFFF" d="M1756.7,614.9c0-24.9-20.2-45.1-45.1-45.1s-45.1,20.2-45.1,45.1s20.2,45.1,45.1,45.1
		S1756.7,639.8,1756.7,614.9z M1708,640.6c-8.4-8.3-16.7-16.7-25-25c-0.1-0.1-0.2-0.2-0.3-0.4c1.4-1.5,2.6-3.3,5-3.2
		c1.3,0.1,2.3,0.5,3.2,1.4c4.4,4.4,8.8,8.8,13.2,13.2c1.5,1.5,2.5,1.7,3.4,0.8c1-1,0.8-1.9-0.8-3.5c-5.5-5.4-10.9-10.9-16.6-16.5
		l9.6-9.5c2.1-2.1,4.7-2.2,6.9,0c4.4,4.4,8.8,8.8,13.2,13.2c0.3,0.3,0.6,0.6,0.9,0.9c0.8,0.6,1.7,0.5,2.4-0.2
		c0.7-0.7,0.8-1.6,0.2-2.4c-0.3-0.4-0.7-0.8-1-1.1l-16.6-16.3c1.8-1.9,3.2-3.9,5.9-3.9c1.4,0,2.7,0.5,3.6,1.5
		c8.4,8.4,16.8,16.8,25.1,25.1c0.1,0.1,0.2,0.3,0.4,0.5c-3.5,3.5-7,7-10.4,10.4c-1.7,1.6-4.4,1.5-6.1-0.3
		c-5.4-5.4-10.8-10.8-16.2-16.2c-0.2-0.2-0.5-0.5-0.7-0.7c-1.1-1.1-2.2-1.1-3-0.2c-0.8,0.9-0.7,1.9,0.4,2.9l20,19.7l-9.3,9.6
		C1713.3,642.8,1710.3,642.8,1708,640.6z"/>
	<path fill="#FFFFFF" d="M1872.4,1524.9c-24.9,0-45.1,20.2-45.1,45.1s20.2,45.1,45.1,45.1s45.1-20.2,45.1-45.1
		S1897.4,1524.9,1872.4,1524.9z M1898.1,1573.6c-8.3,8.4-16.7,16.7-25,25c-0.1,0.1-0.2,0.2-0.4,0.3c-1.5-1.4-3.3-2.6-3.2-5
		c0.1-1.3,0.5-2.3,1.4-3.2c4.4-4.4,8.8-8.8,13.2-13.2c1.5-1.5,1.7-2.5,0.8-3.4c-1-1-1.9-0.8-3.5,0.8c-5.4,5.5-10.9,10.9-16.5,16.6
		l-9.5-9.6c-2.1-2.1-2.2-4.7,0-6.9c4.4-4.4,8.8-8.8,13.2-13.2c0.3-0.3,0.6-0.6,0.9-0.9c0.6-0.8,0.5-1.7-0.2-2.4
		c-0.7-0.7-1.6-0.8-2.4-0.2c-0.4,0.3-0.8,0.7-1.1,1l-16.3,16.6c-1.9-1.8-3.9-3.2-3.9-5.9c0-1.4,0.5-2.7,1.5-3.6
		c8.4-8.4,16.8-16.8,25.1-25.1c0.1-0.1,0.3-0.2,0.5-0.4c3.5,3.5,7,7,10.4,10.4c1.6,1.7,1.5,4.4-0.3,6.1
		c-5.4,5.4-10.8,10.8-16.2,16.2c-0.2,0.2-0.5,0.5-0.7,0.7c-1.1,1.1-1.1,2.2-0.2,3c0.9,0.8,1.9,0.7,2.9-0.4l19.7-20l9.6,9.3
		C1900.3,1568.3,1900.4,1571.3,1898.1,1573.6z"/>
	<path fill="#FFFFFF" d="M1497.3-48.9c-24.9,0-45.1,20.2-45.1,45.1s20.2,45.1,45.1,45.1s45.1-20.2,45.1-45.1
		S1522.3-48.9,1497.3-48.9z M1523-0.3c-8.3,8.4-16.7,16.7-25,25c-0.1,0.1-0.2,0.2-0.4,0.3c-1.5-1.4-3.3-2.6-3.2-5
		c0.1-1.3,0.5-2.3,1.4-3.2c4.4-4.4,8.8-8.8,13.2-13.2c1.5-1.5,1.7-2.5,0.8-3.4c-1-1-1.9-0.8-3.5,0.8c-5.4,5.5-10.9,10.9-16.5,16.6
		l-9.5-9.6c-2.1-2.1-2.2-4.7,0-6.9c4.4-4.4,8.8-8.8,13.2-13.2c0.3-0.3,0.6-0.6,0.9-0.9c0.6-0.8,0.5-1.7-0.2-2.4
		c-0.7-0.7-1.6-0.8-2.4-0.2c-0.4,0.3-0.8,0.7-1.1,1L1474.4,2c-1.9-1.8-3.9-3.2-3.9-5.9c0-1.4,0.5-2.7,1.5-3.6
		c8.4-8.4,16.8-16.8,25.1-25.1c0.1-0.1,0.3-0.2,0.5-0.4c3.5,3.5,7,7,10.4,10.4c1.6,1.7,1.5,4.4-0.3,6.1
		c-5.4,5.4-10.8,10.8-16.2,16.2c-0.2,0.2-0.5,0.5-0.7,0.7c-1.1,1.1-1.1,2.2-0.2,3c0.9,0.8,1.9,0.7,2.9-0.4l19.7-20l9.6,9.3
		C1525.2-5.6,1525.3-2.5,1523-0.3z"/>
	<path fill="#FFFFFF" d="M1180.1,1544c-24.9,0-45.1,20.2-45.1,45.1s20.2,45.1,45.1,45.1s45.1-20.2,45.1-45.1S1205,1544,1180.1,1544z
		 M1205.8,1592.6c-8.3,8.4-16.7,16.7-25,25c-0.1,0.1-0.2,0.2-0.4,0.3c-1.5-1.4-3.3-2.6-3.2-5c0.1-1.3,0.5-2.3,1.4-3.2
		c4.4-4.4,8.8-8.8,13.2-13.2c1.5-1.5,1.7-2.5,0.8-3.4c-1-1-1.9-0.8-3.5,0.8c-5.4,5.5-10.9,10.9-16.5,16.6l-9.5-9.6
		c-2.1-2.1-2.2-4.7,0-6.9c4.4-4.4,8.8-8.8,13.2-13.2c0.3-0.3,0.6-0.6,0.9-0.9c0.6-0.8,0.5-1.7-0.2-2.4c-0.7-0.7-1.6-0.8-2.4-0.2
		c-0.4,0.3-0.8,0.7-1.1,1l-16.3,16.6c-1.9-1.8-3.9-3.2-3.9-5.9c0-1.4,0.5-2.7,1.5-3.6c8.4-8.4,16.8-16.8,25.1-25.1
		c0.1-0.1,0.3-0.2,0.5-0.4c3.5,3.5,7,7,10.4,10.4c1.6,1.7,1.5,4.4-0.3,6.1c-5.4,5.4-10.8,10.8-16.2,16.2c-0.2,0.2-0.5,0.5-0.7,0.7
		c-1.1,1.1-1.1,2.2-0.2,3c0.9,0.8,1.9,0.7,2.9-0.4l19.7-20l9.6,9.3C1208,1587.3,1208,1590.4,1205.8,1592.6z"/>
	<path fill="#FFFFFF" d="M1541.9,1021.9c-14.5,0-26.3,11.8-26.3,26.3s11.8,26.3,26.3,26.3c14.5,0,26.3-11.8,26.3-26.3
		C1568.1,1033.6,1556.4,1021.9,1541.9,1021.9z M1556.8,1050.2c-4.9,4.9-9.7,9.7-14.6,14.6c-0.1,0.1-0.1,0.1-0.2,0.2
		c-0.9-0.8-1.9-1.5-1.8-2.9c0-0.8,0.3-1.3,0.8-1.9c2.6-2.6,5.1-5.1,7.7-7.7c0.9-0.9,1-1.5,0.5-2c-0.6-0.6-1.1-0.5-2,0.5
		c-3.2,3.2-6.3,6.4-9.6,9.7l-5.5-5.6c-1.2-1.2-1.3-2.8,0-4c2.6-2.6,5.1-5.1,7.7-7.7c0.2-0.2,0.4-0.3,0.5-0.5c0.3-0.5,0.3-1-0.1-1.4
		c-0.4-0.4-0.9-0.5-1.4-0.1c-0.2,0.2-0.4,0.4-0.7,0.6l-9.5,9.7c-1.1-1.1-2.3-1.9-2.3-3.5c0-0.8,0.3-1.5,0.8-2.1
		c4.9-4.9,9.8-9.8,14.6-14.6c0.1-0.1,0.2-0.1,0.3-0.2c2.1,2.1,4.1,4.1,6.1,6.1c1,1,0.9,2.6-0.1,3.6c-3.1,3.1-6.3,6.3-9.4,9.4
		c-0.1,0.1-0.3,0.3-0.4,0.4c-0.6,0.7-0.7,1.3-0.1,1.8c0.5,0.5,1.1,0.4,1.7-0.2l11.5-11.7l5.6,5.4
		C1558.1,1047.1,1558.1,1048.9,1556.8,1050.2z"/>
	<path fill="#FFFFFF" d="M1873.4,208.5c-14.5,0-26.3,11.8-26.3,26.3s11.8,26.3,26.3,26.3c14.5,0,26.3-11.8,26.3-26.3
		C1899.7,220.2,1888,208.5,1873.4,208.5z M1888.4,236.8c-4.9,4.9-9.7,9.7-14.6,14.6c-0.1,0.1-0.1,0.1-0.2,0.2
		c-0.9-0.8-1.9-1.5-1.8-2.9c0-0.8,0.3-1.3,0.8-1.9c2.6-2.6,5.1-5.1,7.7-7.7c0.9-0.9,1-1.5,0.5-2c-0.6-0.6-1.1-0.5-2,0.5
		c-3.2,3.2-6.3,6.4-9.6,9.7l-5.5-5.6c-1.2-1.2-1.3-2.8,0-4c2.6-2.6,5.1-5.1,7.7-7.7c0.2-0.2,0.4-0.3,0.5-0.5c0.3-0.5,0.3-1-0.1-1.4
		c-0.4-0.4-0.9-0.5-1.4-0.1c-0.2,0.2-0.4,0.4-0.7,0.6l-9.5,9.7c-1.1-1.1-2.3-1.9-2.3-3.5c0-0.8,0.3-1.5,0.8-2.1
		c4.9-4.9,9.8-9.8,14.6-14.6c0.1-0.1,0.2-0.1,0.3-0.2c2.1,2.1,4.1,4.1,6.1,6.1c1,1,0.9,2.6-0.1,3.6c-3.1,3.1-6.3,6.3-9.4,9.4
		c-0.1,0.1-0.3,0.3-0.4,0.4c-0.6,0.7-0.7,1.3-0.1,1.8c0.5,0.5,1.1,0.4,1.7-0.2l11.5-11.7l5.6,5.4
		C1889.7,233.7,1889.7,235.5,1888.4,236.8z"/>
	<path fill="#FFFFFF" d="M1329,880.1c-14.5,0-26.3,11.8-26.3,26.3c0,14.5,11.8,26.3,26.3,26.3c14.5,0,26.3-11.8,26.3-26.3
		C1355.2,891.9,1343.5,880.1,1329,880.1z M1343.9,908.5c-4.9,4.9-9.7,9.7-14.6,14.6c-0.1,0.1-0.1,0.1-0.2,0.2
		c-0.9-0.8-1.9-1.5-1.8-2.9c0-0.8,0.3-1.3,0.8-1.9c2.6-2.6,5.1-5.1,7.7-7.7c0.9-0.9,1-1.5,0.5-2c-0.6-0.6-1.1-0.5-2,0.5
		c-3.2,3.2-6.3,6.4-9.6,9.7l-5.5-5.6c-1.2-1.2-1.3-2.8,0-4c2.6-2.6,5.1-5.1,7.7-7.7c0.2-0.2,0.4-0.3,0.5-0.5c0.3-0.5,0.3-1-0.1-1.4
		c-0.4-0.4-0.9-0.5-1.4-0.1c-0.2,0.2-0.4,0.4-0.7,0.6l-9.5,9.7c-1.1-1.1-2.3-1.9-2.3-3.5c0-0.8,0.3-1.5,0.8-2.1
		c4.9-4.9,9.8-9.8,14.6-14.6c0.1-0.1,0.2-0.1,0.3-0.2c2.1,2.1,4.1,4.1,6.1,6.1c1,1,0.9,2.6-0.1,3.6c-3.1,3.1-6.3,6.3-9.4,9.4
		c-0.1,0.1-0.3,0.3-0.4,0.4c-0.6,0.7-0.7,1.3-0.1,1.8c0.5,0.5,1.1,0.4,1.7-0.2l11.5-11.7l5.6,5.4
		C1345.2,905.4,1345.2,907.2,1343.9,908.5z"/>
	<path fill="#FFFFFF" d="M1225,1174.6c-14.5,0-26.3,11.8-26.3,26.3s11.8,26.3,26.3,26.3c14.5,0,26.3-11.8,26.3-26.3
		C1251.3,1186.3,1239.5,1174.6,1225,1174.6z M1240,1202.9c-4.9,4.9-9.7,9.7-14.6,14.6c-0.1,0.1-0.1,0.1-0.2,0.2
		c-0.9-0.8-1.9-1.5-1.8-2.9c0-0.8,0.3-1.3,0.8-1.9c2.6-2.6,5.1-5.1,7.7-7.7c0.9-0.9,1-1.5,0.5-2c-0.6-0.6-1.1-0.5-2,0.5
		c-3.2,3.2-6.3,6.4-9.6,9.7l-5.5-5.6c-1.2-1.2-1.3-2.8,0-4c2.6-2.6,5.1-5.1,7.7-7.7c0.2-0.2,0.4-0.3,0.5-0.5c0.3-0.5,0.3-1-0.1-1.4
		c-0.4-0.4-0.9-0.5-1.4-0.1c-0.2,0.2-0.4,0.4-0.7,0.6l-9.5,9.7c-1.1-1.1-2.3-1.9-2.3-3.5c0-0.8,0.3-1.5,0.8-2.1
		c4.9-4.9,9.8-9.8,14.6-14.6c0.1-0.1,0.2-0.1,0.3-0.2c2.1,2.1,4.1,4.1,6.1,6.1c1,1,0.9,2.6-0.1,3.6c-3.1,3.1-6.3,6.3-9.4,9.4
		c-0.1,0.1-0.3,0.3-0.4,0.4c-0.6,0.7-0.7,1.3-0.1,1.8c0.5,0.5,1.1,0.4,1.7-0.2l11.5-11.7l5.6,5.4
		C1241.2,1199.8,1241.3,1201.6,1240,1202.9z"/>
	<path fill="#FFFFFF" d="M1587.1,287.3c-14.5,0-26.3,11.8-26.3,26.3s11.8,26.3,26.3,26.3c14.5,0,26.3-11.8,26.3-26.3
		C1613.4,299,1601.6,287.3,1587.1,287.3z M1602.1,315.6c-4.9,4.9-9.7,9.7-14.6,14.6c-0.1,0.1-0.1,0.1-0.2,0.2
		c-0.9-0.8-1.9-1.5-1.8-2.9c0-0.8,0.3-1.3,0.8-1.9c2.6-2.6,5.1-5.1,7.7-7.7c0.9-0.9,1-1.5,0.5-2c-0.6-0.6-1.1-0.5-2,0.5
		c-3.2,3.2-6.3,6.4-9.6,9.7l-5.5-5.6c-1.2-1.2-1.3-2.8,0-4c2.6-2.6,5.1-5.1,7.7-7.7c0.2-0.2,0.4-0.3,0.5-0.5c0.3-0.5,0.3-1-0.1-1.4
		c-0.4-0.4-0.9-0.5-1.4-0.1c-0.2,0.2-0.4,0.4-0.7,0.6l-9.5,9.7c-1.1-1.1-2.3-1.9-2.3-3.5c0-0.8,0.3-1.5,0.8-2.1
		c4.9-4.9,9.8-9.8,14.6-14.6c0.1-0.1,0.2-0.1,0.3-0.2c2.1,2.1,4.1,4.1,6.1,6.1c1,1,0.9,2.6-0.1,3.6c-3.1,3.1-6.3,6.3-9.4,9.4
		c-0.1,0.1-0.3,0.3-0.4,0.4c-0.6,0.7-0.7,1.3-0.1,1.8c0.5,0.5,1.1,0.4,1.7-0.2l11.5-11.7l5.6,5.4
		C1603.3,312.5,1603.4,314.3,1602.1,315.6z"/>
	<path fill="#FFFFFF" d="M1159.2,108c0-14.5-11.8-26.3-26.3-26.3s-26.3,11.8-26.3,26.3c0,14.5,11.8,26.3,26.3,26.3
		C1147.5,134.3,1159.2,122.5,1159.2,108z M1130.9,123c-4.9-4.9-9.7-9.7-14.6-14.6c-0.1-0.1-0.1-0.1-0.2-0.2c0.8-0.9,1.5-1.9,2.9-1.8
		c0.8,0,1.3,0.3,1.9,0.8c2.6,2.6,5.1,5.1,7.7,7.7c0.9,0.9,1.5,1,2,0.5c0.6-0.6,0.5-1.1-0.5-2c-3.2-3.2-6.4-6.3-9.7-9.6l5.6-5.5
		c1.2-1.2,2.8-1.3,4,0c2.6,2.6,5.1,5.1,7.7,7.7c0.2,0.2,0.3,0.4,0.5,0.5c0.5,0.3,1,0.3,1.4-0.1c0.4-0.4,0.5-0.9,0.1-1.4
		c-0.2-0.2-0.4-0.4-0.6-0.7l-9.7-9.5c1.1-1.1,1.9-2.3,3.5-2.3c0.8,0,1.5,0.3,2.1,0.8c4.9,4.9,9.8,9.8,14.6,14.6
		c0.1,0.1,0.1,0.2,0.2,0.3c-2.1,2.1-4.1,4.1-6.1,6.1c-1,1-2.6,0.9-3.6-0.1c-3.1-3.1-6.3-6.3-9.4-9.4c-0.1-0.1-0.3-0.3-0.4-0.4
		c-0.7-0.6-1.3-0.7-1.8-0.1c-0.5,0.5-0.4,1.1,0.2,1.7l11.7,11.5l-5.4,5.6C1134,124.3,1132.2,124.3,1130.9,123z"/>
	<path fill="#FFFFFF" d="M1213,415.3c14.5,0,26.3-11.8,26.3-26.3s-11.8-26.3-26.3-26.3c-14.5,0-26.3,11.8-26.3,26.3
		C1186.7,403.5,1198.5,415.3,1213,415.3z M1198.1,386.9c4.9-4.9,9.7-9.7,14.6-14.6c0.1-0.1,0.1-0.1,0.2-0.2c0.9,0.8,1.9,1.5,1.8,2.9
		c0,0.8-0.3,1.3-0.8,1.9c-2.6,2.6-5.1,5.1-7.7,7.7c-0.9,0.9-1,1.5-0.5,2c0.6,0.6,1.1,0.5,2-0.5c3.2-3.2,6.3-6.4,9.6-9.7l5.5,5.6
		c1.2,1.2,1.3,2.8,0,4c-2.6,2.6-5.1,5.1-7.7,7.7c-0.2,0.2-0.4,0.3-0.5,0.5c-0.3,0.5-0.3,1,0.1,1.4c0.4,0.4,0.9,0.5,1.4,0.1
		c0.2-0.2,0.4-0.4,0.7-0.6l9.5-9.7c1.1,1.1,2.3,1.9,2.3,3.5c0,0.8-0.3,1.5-0.8,2.1c-4.9,4.9-9.8,9.8-14.6,14.6
		c-0.1,0.1-0.2,0.1-0.3,0.2c-2.1-2.1-4.1-4.1-6.1-6.1c-1-1-0.9-2.6,0.1-3.6c3.1-3.1,6.3-6.3,9.4-9.4c0.1-0.1,0.3-0.3,0.4-0.4
		c0.6-0.7,0.7-1.3,0.1-1.8c-0.5-0.5-1.1-0.4-1.7,0.2l-11.5,11.7l-5.6-5.4C1196.8,390,1196.8,388.2,1198.1,386.9z"/>
	<path fill="#FFFFFF" d="M1492.4,1430.6c-14.5,0-26.3,11.8-26.3,26.3s11.8,26.3,26.3,26.3c14.5,0,26.3-11.8,26.3-26.3
		C1518.7,1442.3,1506.9,1430.6,1492.4,1430.6z M1507.4,1458.9c-4.9,4.9-9.7,9.7-14.6,14.6c-0.1,0.1-0.1,0.1-0.2,0.2
		c-0.9-0.8-1.9-1.5-1.8-2.9c0-0.8,0.3-1.3,0.8-1.9c2.6-2.6,5.1-5.1,7.7-7.7c0.9-0.9,1-1.5,0.5-2c-0.6-0.6-1.1-0.5-2,0.5
		c-3.2,3.2-6.3,6.4-9.6,9.7l-5.5-5.6c-1.2-1.2-1.3-2.8,0-4c2.6-2.6,5.1-5.1,7.7-7.7c0.2-0.2,0.4-0.3,0.5-0.5c0.3-0.5,0.3-1-0.1-1.4
		c-0.4-0.4-0.9-0.5-1.4-0.1c-0.2,0.2-0.4,0.4-0.7,0.6l-9.5,9.7c-1.1-1.1-2.3-1.9-2.3-3.5c0-0.8,0.3-1.5,0.8-2.1
		c4.9-4.9,9.8-9.8,14.6-14.6c0.1-0.1,0.2-0.1,0.3-0.2c2.1,2.1,4.1,4.1,6.1,6.1c1,1,0.9,2.6-0.1,3.6c-3.1,3.1-6.3,6.3-9.4,9.4
		c-0.1,0.1-0.3,0.3-0.4,0.4c-0.6,0.7-0.7,1.3-0.1,1.8c0.5,0.5,1.1,0.4,1.7-0.2l11.5-11.7l5.6,5.4
		C1508.6,1455.8,1508.7,1457.6,1507.4,1458.9z"/>
</g>
<g opacity="0.66">
	<path fill="#D4DCEE" d="M1927.4,614.5c-1.6,0-3,1.3-3,3c0,1.6,1.3,3,3,3s3-1.3,3-3C1930.4,615.8,1929.1,614.5,1927.4,614.5z
		 M1927.4,619.2c-1,0-1.8-0.8-1.8-1.8c0-1,0.8-1.8,1.8-1.8c1,0,1.8,0.8,1.8,1.8C1929.2,618.4,1928.4,619.2,1927.4,619.2z"/>
	<path fill="#D4DCEE" d="M1477.5,613.3h-4.7c-1.1,0-1.8,0.6-1.8,1.8v4.7c0,1.1,0.7,1.5,1.8,1.5h4.7c1.1,0,1.5-0.4,1.5-1.5V615
		C1479,613.9,1478.6,613.3,1477.5,613.3z M1478,619.7c0,0.2-0.3,0.5-0.5,0.5h-4.7c-0.2,0-0.8-0.3-0.8-0.5V615c0-0.2,0.5-0.8,0.8-0.8
		h4.7c0.2,0,0.5,0.5,0.5,0.8V619.7z"/>
	<path fill="#D4DCEE" d="M1927.3,610.5c0.9,0,1.6-0.7,1.6-1.6c0-0.9-0.7-1.6-1.6-1.6c-0.9,0-1.6,0.7-1.6,1.6
		C1925.7,609.8,1926.5,610.5,1927.3,610.5z"/>
	<path fill="#D4DCEE" d="M1474.8,605.5c-0.1,0-0.2,0-0.3,0c-6.4,0.2-11.6,5.4-11.6,11.9c0,6.6,5.3,11.9,11.9,11.9
		c6.6,0,11.9-5.3,11.9-11.9C1486.8,610.9,1481.4,605.5,1474.8,605.5z M1474.8,627.8c-5.7,0-10.3-4.6-10.3-10.3
		c0-2.7,1.1-5.3,2.9-7.2c1.9-1.9,4.4-3,7.1-3l0.1,0.1c0.1,0,0.1,0,0.1,0c5.7,0,10.3,4.6,10.3,10.2
		C1485.2,623.2,1480.5,627.8,1474.8,627.8z"/>
	<path fill="#D4DCEE" d="M1905.1,463.3h-406.4c-1.1,0-1.7,0.9-1.7,2v304.8c0,1.1,0.6,2.2,1.7,2.2h406.4c1.1,0,1.9-1.1,1.9-2.2V465.3
		C1907,464.2,1906.2,463.3,1905.1,463.3z M1905,770.3h-406v-305h406V770.3z"/>
	<path fill="#D4DCEE" d="M1945.8,447.1c-4-3.9-9.3-5.8-14.9-5.8h-458.2c-11.5,0-20.7,9.6-20.7,22v308.7c0,6,2.1,11.5,6,15.7
		c4.1,4.3,9.6,6.6,15.7,6.6h457.2c5.6,0,11-2.1,14.9-6.1c3.9-4,6.2-9.3,6.2-15V461.3C1952,455.9,1949.7,451,1945.8,447.1z
		 M1930.9,789.3h-457.2c-4.6,0-8.9-2-11.9-5.2c-2.9-3.1-4.8-7.6-4.8-12.2V463.3c0-9.3,7.3-17,15.7-17h458.2c4.1,0,7.8,1.6,10.7,4.5
		c2.9,2.8,4.4,6.6,4.4,10.5v311.9c0,4.3-1.5,8.4-4.4,11.4C1938.7,787.5,1935,789.3,1930.9,789.3z"/>
</g>
<g>
	<path fill="#D4DCEE" d="M1728-3.7c0-1.1-0.9-2-2-2h-5c-1.1,0-2,0.9-2,2v5c0,1.1,0.9,2,2,2h5c1.1,0,2-0.9,2-2V-3.7z M1726,1
		c0,0.2,0,0.3-0.2,0.3h-4.7c-0.2,0-0.1,0-0.1-0.3v-4.7c0-0.2-0.2,0,0.1,0h4.7c0.2,0,0.2-0.2,0.2,0V1z"/>
	<path fill="#D4DCEE" d="M1723.7-13.3c-6.6,0-11.9,5.3-11.9,11.9c0,6.6,5.3,11.9,11.9,11.9c0.1,0,0.2,0,0.3,0
		c6.4-0.1,11.6-5.4,11.6-11.9C1735.6-8,1730.3-13.3,1723.7-13.3z M1731.1,5.8c-1.9,1.9-4.4,3.2-7.1,3.3l-0.1,0.2c-0.1,0-0.1,0-0.1,0
		c-5.7,0-10.3-4.8-10.3-10.5c0-5.7,4.6-10.4,10.3-10.4c5.7,0,10.3,4.6,10.3,10.3C1734,1.4,1733,3.9,1731.1,5.8z"/>
	<path fill="#D4DCEE" d="M1699.8-155.7h-406.4c-1.1,0-2.4,0.6-2.4,1.7v304.8c0,1.1,1.3,1.5,2.4,1.5h406.4c1.1,0,2.2-0.4,2.2-1.5
		V-154C1702-155.1,1700.9-155.7,1699.8-155.7z M1700,150.3h-407v-304h407V150.3z"/>
	<path fill="#D4DCEE" d="M1271.2,5.5c-0.9,0-1.6,0.7-1.6,1.6c0,0.9,0.7,1.6,1.6,1.6c0.9,0,1.6-0.7,1.6-1.6
		C1272.8,6.2,1272.1,5.5,1271.2,5.5z"/>
	<path fill="#D4DCEE" d="M1271.1-4.4c-1.6,0-3,1.3-3,3c0,1.6,1.3,3,3,3c1.6,0,3-1.3,3-3C1274.1-3.1,1272.8-4.4,1271.1-4.4z
		 M1271.1,0.4c-1,0-1.8-0.8-1.8-1.8c0-1,0.8-1.8,1.8-1.8c1,0,1.8,0.8,1.8,1.8C1272.9-0.4,1272.1,0.4,1271.1,0.4z"/>
	<path fill="#D4DCEE" d="M1740.8-171.8c-4-4.3-9.8-6.9-15.9-6.9h-457.2c-5.6,0-10.7,2.4-14.7,6.4c-3.9,4-6,9.5-6,15.3v311.9
		c0,5.4,2.1,10.5,6,14.4c4,3.9,9.1,6.1,14.6,6.1h458.2c11.5,0,21.2-10.1,21.2-22.5v-308.7C1747-161.9,1744.7-167.7,1740.8-171.8z
		 M1725.8,169.3h-458.2c-4.1,0-8.1-1.4-11-4.2c-2.9-2.8-4.6-6.3-4.6-10.3v-311.9c0-4.3,1.8-8.2,4.7-11.1c2.9-2.9,6.9-4.5,11-4.5
		h457.2c4.6,0,8.6,1.7,11.6,4.9c2.9,3.1,4.5,7.4,4.5,11.9v308.6C1741,162.1,1734.3,169.3,1725.8,169.3z"/>
</g>
<g opacity="0.21">
	<g id="XMLID_8_">
		<g>
			<rect x="1945.4" y="116.9" fill="#D4DCEE" width="1.6" height="257"/>
			<polygon fill="#D4DCEE" points="1922.3,85.8 1922.3,86.6 1898.1,86.6 1898.1,85.8 1899.2,85.2 1921.6,85.2 			"/>
			<path fill="#D4DCEE" d="M1871.6,102.7c0-0.7,0.5-1.2,1.2-1.2c0.7,0,1.2,0.5,1.2,1.2c0,0.7-0.5,1.2-1.2,1.2
				C1872.1,103.9,1871.6,103.4,1871.6,102.7z"/>
			<path fill="#D4DCEE" d="M1869.4,102.8c0-1.9,1.5-3.4,3.4-3.4c1.9,0,3.4,1.5,3.4,3.4s-1.5,3.4-3.4,3.4
				C1870.9,106.2,1869.4,104.6,1869.4,102.8z M1872.7,100.6c-1.2,0-2.2,1-2.2,2.2s1,2.2,2.2,2.2c1.2,0,2.2-1,2.2-2.2
				C1874.9,101.6,1873.9,100.6,1872.7,100.6z"/>
			<path fill="#D4DCEE" d="M1859.4,380.2c0-7.4,6-13.4,13.4-13.4c7.4,0,13.4,6,13.4,13.4s-6,13.4-13.4,13.4
				C1865.4,393.6,1859.4,387.6,1859.4,380.2z M1884.6,380.2c0-6.5-5.3-11.8-11.8-11.8s-11.8,5.3-11.8,11.8s5.3,11.8,11.8,11.8
				S1884.6,386.7,1884.6,380.2z"/>
			<path fill="#D4DCEE" d="M1883.4,113.4h-21.8c-0.8,0-1.4,0.6-1.4,1.4c0,0.8,0.6,1.4,1.4,1.4h21.8c0.8,0,1.4-0.6,1.4-1.4
				C1884.8,114,1884.2,113.4,1883.4,113.4z M1883.4,117.7h-21.8c-1.7,0-3-1.3-3-3c0-1.7,1.3-3,3-3h21.8c1.6,0,3,1.3,3,3
				C1886.4,116.4,1885.1,117.7,1883.4,117.7z"/>
			<path fill="#D4DCEE" d="M1936.2,359.6h-127c-0.9,0-1.6-0.7-1.6-1.6V132.6c0-0.9,0.7-1.6,1.6-1.6h127c0.9,0,1.6,0.7,1.6,1.6V358
				C1937.8,358.9,1937.1,359.6,1936.2,359.6z M1809.2,132.6V358h127V132.6H1809.2z"/>
			<path fill="#D4DCEE" d="M1805.2,396.2c-4.1-4-6.3-9.4-6.3-15.2v-4.8h1.6v4.8c0,11,8.9,19.8,19.9,19.8h105.1
				c11,0,19.9-8.9,19.9-19.8v-4.8h1.6v4.8c0,5.7-2.2,11.1-6.3,15.2c-4.1,4-9.4,6.3-15.2,6.3h-105.1
				C1814.6,402.5,1809.3,400.3,1805.2,396.2z"/>
			<polygon fill="#D4DCEE" points="1800.5,116.9 1800.5,373.9 1798.9,373.9 1798.9,199.5 1798.9,198.3 1798.9,187.2 1798.9,186 
				1798.9,173.1 1798.9,171.9 1798.9,160.8 1798.9,159.6 1798.9,146.5 1798.9,145.3 1798.9,130.8 1798.9,129.6 1798.9,116.9 			"/>
			<path fill="#D4DCEE" d="M1820.4,89.7c-11,0-19.9,8.9-19.9,19.8v5h-1.6v-5c0-5.7,2.2-11.1,6.3-15.2c4.1-4.1,9.4-6.3,15.2-6.3
				h105.1c5.7,0,11.1,2.2,15.2,6.3c4.1,4,6.3,9.4,6.3,15.2v5h-1.6v-5c0-11-8.9-19.8-19.9-19.8H1820.4z"/>
			<path fill="#D4DCEE" d="M1797.3,187.2v11.1h-0.4l-0.6-0.6v-9.9c0.2-0.2,0.3-0.3,0.6-0.6L1797.3,187.2L1797.3,187.2z"/>
			<path fill="#D4DCEE" d="M1797.3,160.8v11.1h-0.4l-0.6-0.6v-9.9c0.2-0.2,0.3-0.3,0.6-0.6L1797.3,160.8L1797.3,160.8z"/>
			<path fill="#D4DCEE" d="M1797.3,130.8v14.5h-0.4l-0.6-0.6v-13.3c0.2-0.2,0.3-0.3,0.6-0.6H1797.3z"/>
			<path fill="#D4DCEE" d="M1946.9,373.9v-257h-1.6v257H1946.9z M1922.3,86.6v-0.8l-0.8-0.6h-22.4l-1,0.6v0.8H1922.3z M1797.3,145.3
				v-14.5h-0.4c-0.3,0.3-0.4,0.4-0.6,0.6v13.3l0.6,0.6H1797.3z M1797.3,171.9v-11.1h-0.4c-0.3,0.3-0.4,0.4-0.6,0.6v9.9l0.6,0.6
				L1797.3,171.9L1797.3,171.9z M1797.3,198.3v-11.1h-0.4c-0.3,0.3-0.4,0.4-0.6,0.6v9.9l0.6,0.6L1797.3,198.3L1797.3,198.3z
				 M1797.3,109.6c0-6.2,2.4-11.9,6.8-16.3c4.3-4.3,10.1-6.7,16.3-6.7h76.6v-0.8v-0.7l0.6-0.3l1-0.6l0.3-0.2h0.3h22.4h0.4l0.3,0.2
				l0.8,0.6l0.5,0.4v0.6v0.8h2c6.1,0,11.9,2.4,16.3,6.7c4.3,4.3,6.8,10.1,6.8,16.3v271.5c0,6.1-2.4,11.9-6.8,16.3
				c-4.4,4.4-10.1,6.7-16.3,6.7h-105.1c-6.2,0-11.9-2.4-16.3-6.7c-4.4-4.4-6.8-10.1-6.8-16.3V199.5h-0.4h-0.5l-0.4-0.4l-0.6-0.6
				l-0.4-0.4v-0.5v-9.9v-0.5l0.4-0.4l0.6-0.6l0.4-0.3h0.5h0.4v-12.9h-0.4h-0.5l-0.4-0.4l-0.6-0.6l-0.4-0.4v-0.5v-9.9v-0.5l0.4-0.4
				l0.6-0.6l0.4-0.4h0.5h0.4v-13.1h-0.4h-0.5l-0.4-0.4l-0.6-0.6l-0.4-0.4v-0.5v-13.3v-0.5l0.4-0.3l0.6-0.6l0.4-0.4h0.5h0.4
				L1797.3,109.6L1797.3,109.6z M1800.5,373.9v-257h-1.6v12.7v1.2v14.5v1.2v13.1v1.2v11.1v1.2V186v1.2v11.1v1.2v174.4L1800.5,373.9
				L1800.5,373.9z M1798.9,381.1c0,5.7,2.2,11.1,6.3,15.2c4.1,4,9.4,6.3,15.2,6.3h105.1c5.7,0,11.1-2.2,15.2-6.3
				c4.1-4,6.3-9.4,6.3-15.2v-4.8h-1.6v4.8c0,11-8.9,19.8-19.9,19.8h-105.1c-11,0-19.9-8.9-19.9-19.8v-4.8h-1.6L1798.9,381.1
				L1798.9,381.1z M1820.4,88.2c-5.7,0-11.1,2.2-15.2,6.3c-4.1,4-6.3,9.4-6.3,15.2v5h1.6v-5c0-11,8.9-19.8,19.9-19.8h105.1
				c11,0,19.9,8.9,19.9,19.8v5h1.6v-5c0-5.7-2.2-11.1-6.3-15.2c-4.1-4.1-9.4-6.3-15.2-6.3H1820.4z M1802.1,381
				c0,10.1,8.2,18.2,18.3,18.2h105.1c10.1,0,18.3-8.2,18.3-18.2V109.6c0-10.1-8.2-18.3-18.3-18.3h-105.1c-10.1,0-18.3,8.2-18.3,18.3
				V381z"/>
		</g>
	</g>
</g>
<g opacity="0.27">
	<g>
		<path fill="#D4DCEE" d="M1738.5,383.9c4.3-4.4,6.7-10.1,6.7-16.3v-2h0.8h0.6l0.4-0.5l0.6-0.8l0.2-0.3v-0.4v-22.4v-0.3l-0.2-0.3
			l-0.6-1l-0.3-0.6h-0.7h-0.8v-76.6c0-6.2-2.4-11.9-6.7-16.3c-4.3-4.4-10.1-6.8-16.3-6.8h-20V239v-0.5l-0.3-0.3l-0.6-0.6l-0.3-0.3
			h-0.5h-13.3h-0.5l-0.3,0.3l-0.6,0.6l-0.3,0.3v0.5v0.4h-13.1V239v-0.5l-0.3-0.3l-0.6-0.6l-0.3-0.3h-0.5h-9.9h-0.5l-0.3,0.3
			l-0.6,0.6l-0.3,0.3v0.5v0.4h-12.9V239v-0.5l-0.3-0.3l-0.6-0.6l-0.3-0.3h-0.5h-9.9h-0.5l-0.3,0.3l-0.6,0.6l-0.3,0.3v0.5v0.4h-181.6
			c-6.1,0-11.9,2.4-16.3,6.8c-4.3,4.4-6.7,10.1-6.7,16.3v105.1c0,6.2,2.4,11.9,6.7,16.3c4.3,4.4,10.1,6.8,16.3,6.8h271.4
			C1728.4,390.6,1734.1,388.2,1738.5,383.9z M1722.2,385.8h-271.4c-10.1,0-18.3-8.2-18.3-18.3V262.4c0-10.1,8.2-18.3,18.3-18.3
			h271.4c10.1,0,18.3,8.2,18.3,18.3v105.1C1740.5,377.6,1732.3,385.8,1722.2,385.8z"/>
		<path fill="#D4DCEE" d="M1714.1,303.7v21.8c0,1.6,1.3,3,3,3c1.6,0,3-1.3,3-3v-21.8c0-1.6-1.3-3-3-3
			C1715.4,300.7,1714.1,302,1714.1,303.7z M1718.4,303.7v21.8c0,0.8-0.6,1.4-1.4,1.4c-0.8,0-1.4-0.6-1.4-1.4v-21.8
			c0-0.8,0.6-1.4,1.4-1.4C1717.8,302.3,1718.4,302.9,1718.4,303.7z"/>
		<path fill="#D4DCEE" d="M1700.8,378.3v-127c0-0.9-0.7-1.6-1.6-1.6h-225.4c-0.9,0-1.6,0.7-1.6,1.6v127c0,0.9,0.7,1.6,1.6,1.6h225.4
			C1700.1,379.9,1700.8,379.2,1700.8,378.3z M1473.8,378.3v-127h225.4v127L1473.8,378.3L1473.8,378.3z"/>
		<path fill="#D4DCEE" d="M1465,314.9c0-7.4-6-13.4-13.4-13.4s-13.4,6-13.4,13.4s6,13.4,13.4,13.4C1459,328.3,1465,322.3,1465,314.9
			z M1439.8,314.9c0-6.5,5.3-11.8,11.8-11.8s11.8,5.3,11.8,11.8c0,6.5-5.3,11.8-11.8,11.8S1439.8,321.4,1439.8,314.9z"/>
		<path fill="#D4DCEE" d="M1725.7,314.8c0,1.9,1.5,3.4,3.4,3.4s3.4-1.5,3.4-3.4c0-1.9-1.5-3.4-3.4-3.4S1725.7,312.9,1725.7,314.8z
			 M1731.2,314.8c0,1.2-1,2.2-2.2,2.2s-2.2-1-2.2-2.2s1-2.2,2.2-2.2C1730.2,312.6,1731.2,313.6,1731.2,314.8z"/>
		<circle fill="#D4DCEE" cx="1729.1" cy="314.8" r="1.2"/>
	</g>
</g>
<g opacity="0.47">
	<g>
		<path fill="#D4DCEE" d="M1064.5,262.5c4.4,4.3,10.1,6.7,16.3,6.7h2v0.8v0.6l0.5,0.4l0.8,0.6l0.3,0.2h0.4h22.4h0.3l0.3-0.2l1-0.6
			l0.6-0.3V270v-0.8h76.6c6.2,0,11.9-2.4,16.3-6.7c4.4-4.3,6.8-10.1,6.8-16.3v-20h0.4h0.5l0.3-0.3l0.6-0.6l0.3-0.3v-0.5v-13.3v-0.5
			l-0.3-0.4l-0.6-0.6l-0.3-0.3h-0.5h-0.4v-13.1h0.4h0.5l0.3-0.3l0.6-0.6l0.3-0.3v-0.5v-9.9V184l-0.3-0.4l-0.6-0.6l-0.3-0.3h-0.5
			h-0.4v-12.9h0.4h0.5l0.3-0.3l0.6-0.6l0.3-0.4V168v-9.9v-0.5l-0.3-0.3l-0.6-0.6l-0.3-0.3h-0.5h-0.4V-25.2c0-6.1-2.4-11.9-6.8-16.3
			c-4.4-4.3-10.1-6.7-16.3-6.7h-105.1c-6.2,0-11.9,2.4-16.3,6.7c-4.4,4.3-6.8,10.1-6.8,16.3v271.4
			C1057.7,252.4,1060.1,258.1,1064.5,262.5z M1062.5,246.2V-25.2c0-10.1,8.2-18.3,18.3-18.3h105.1c10.1,0,18.3,8.2,18.3,18.3v271.4
			c0,10.1-8.2,18.3-18.3,18.3h-105.1C1070.7,264.5,1062.5,256.3,1062.5,246.2z"/>
		<path fill="#D4DCEE" d="M1144.7,238.1h-21.8c-1.6,0-3,1.3-3,3c0,1.6,1.3,3,3,3h21.8c1.6,0,3-1.3,3-3
			C1147.6,239.4,1146.3,238.1,1144.7,238.1z M1144.7,242.5h-21.8c-0.8,0-1.4-0.6-1.4-1.4c0-0.8,0.6-1.4,1.4-1.4h21.8
			c0.8,0,1.4,0.6,1.4,1.4C1146,241.8,1145.4,242.5,1144.7,242.5z"/>
		<path fill="#D4DCEE" d="M1070,224.8h127c0.9,0,1.6-0.7,1.6-1.6V-2.2c0-0.9-0.7-1.6-1.6-1.6h-127c-0.9,0-1.6,0.7-1.6,1.6v225.4
			C1068.5,224.1,1069.2,224.8,1070,224.8z M1070-2.2h127v225.4h-127V-2.2z"/>
		<path fill="#D4DCEE" d="M1133.4-10.9c7.4,0,13.4-6,13.4-13.4s-6-13.4-13.4-13.4s-13.4,6-13.4,13.4
			C1120-16.9,1126-10.9,1133.4-10.9z M1133.4-36.1c6.5,0,11.8,5.3,11.8,11.8s-5.3,11.8-11.8,11.8c-6.5,0-11.8-5.3-11.8-11.8
			S1126.9-36.1,1133.4-36.1z"/>
		<path fill="#D4DCEE" d="M1133.5,249.7c-1.9,0-3.4,1.5-3.4,3.4s1.5,3.4,3.4,3.4c1.9,0,3.4-1.5,3.4-3.4S1135.4,249.7,1133.5,249.7z
			 M1133.5,255.2c-1.2,0-2.2-1-2.2-2.2s1-2.2,2.2-2.2s2.2,1,2.2,2.2C1135.7,254.2,1134.7,255.2,1133.5,255.2z"/>
		<circle fill="#D4DCEE" cx="1133.5" cy="253.1" r="1.2"/>
	</g>
</g>
<g>
	<g>
		<path fill="#D4DCEE" d="M1060.4,323.6c-4.3,4.4-6.7,10.1-6.7,16.3v2h-0.8h-0.6l-0.4,0.5l-0.6,0.8l-0.2,0.3v0.4v22.4v0.3l0.2,0.3
			l0.6,1l0.3,0.6h0.7h0.8V445c0,6.2,2.4,11.9,6.7,16.3c4.3,4.4,10.1,6.8,16.3,6.8h20v0.4v0.5l0.3,0.3l0.6,0.6l0.3,0.3h0.5h13.3h0.5
			l0.3-0.3l0.6-0.6l0.3-0.3v-0.5v-0.4h13.1v0.4v0.5l0.3,0.3l0.6,0.6l0.3,0.3h0.5h9.9h0.5l0.3-0.3l0.6-0.6l0.3-0.3v-0.5v-0.4h12.9
			v0.4v0.5l0.3,0.3l0.6,0.6l0.3,0.3h0.5h9.9h0.5l0.3-0.3l0.6-0.6l0.3-0.3v-0.5v-0.4h181.6c6.1,0,11.9-2.4,16.3-6.8
			c4.3-4.4,6.7-10.1,6.7-16.3V339.9c0-6.2-2.4-11.9-6.7-16.3c-4.3-4.4-10.1-6.8-16.3-6.8h-271.4
			C1070.5,316.9,1064.8,319.3,1060.4,323.6z M1076.7,321.6h271.4c10.1,0,18.3,8.2,18.3,18.3V445c0,10.1-8.2,18.3-18.3,18.3h-271.4
			c-10.1,0-18.3-8.2-18.3-18.3V339.9C1058.4,329.8,1066.6,321.6,1076.7,321.6z"/>
		<path fill="#D4DCEE" d="M1084.8,403.8v-21.8c0-1.6-1.3-3-3-3c-1.6,0-3,1.3-3,3v21.8c0,1.6,1.3,3,3,3
			C1083.5,406.8,1084.8,405.4,1084.8,403.8z M1080.5,403.8v-21.8c0-0.8,0.6-1.4,1.4-1.4c0.8,0,1.4,0.6,1.4,1.4v21.8
			c0,0.8-0.6,1.4-1.4,1.4C1081.1,405.2,1080.5,404.5,1080.5,403.8z"/>
		<path fill="#D4DCEE" d="M1098.1,329.2v127c0,0.9,0.7,1.6,1.6,1.6h225.4c0.9,0,1.6-0.7,1.6-1.6v-127c0-0.9-0.7-1.6-1.6-1.6h-225.4
			C1098.8,327.6,1098.1,328.3,1098.1,329.2z M1325.1,329.2v127h-225.4v-127H1325.1z"/>
		<path fill="#D4DCEE" d="M1333.9,392.6c0,7.4,6,13.4,13.4,13.4s13.4-6,13.4-13.4s-6-13.4-13.4-13.4
			C1339.9,379.2,1333.9,385.2,1333.9,392.6z M1359.1,392.6c0,6.5-5.3,11.8-11.8,11.8s-11.8-5.3-11.8-11.8c0-6.5,5.3-11.8,11.8-11.8
			S1359.1,386.1,1359.1,392.6z"/>
		<path fill="#D4DCEE" d="M1073.2,392.7c0-1.9-1.5-3.4-3.4-3.4s-3.4,1.5-3.4,3.4c0,1.9,1.5,3.4,3.4,3.4S1073.2,394.5,1073.2,392.7z
			 M1067.7,392.7c0-1.2,1-2.2,2.2-2.2s2.2,1,2.2,2.2s-1,2.2-2.2,2.2C1068.7,394.8,1067.7,393.9,1067.7,392.7z"/>
		<circle fill="#D4DCEE" cx="1069.8" cy="392.7" r="1.2"/>
	</g>
</g>
</svg>
