<?xml version="1.0" encoding="utf-8"?>
<!-- Generator: Adobe Illustrator 19.1.0, SVG Export Plug-In . SVG Version: 6.00 Build 0)  -->
<svg version="1.1" id="Layer_1" xmlns="http://www.w3.org/2000/svg" xmlns:xlink="http://www.w3.org/1999/xlink" x="0px" y="0px"
	 viewBox="-261.7 467.7 25.4 25.5" style="enable-background:new -261.7 467.7 25.4 25.5;" xml:space="preserve">
<style type="text/css">
	.st0{fill:#27B193;}
	.st1{fill:#EA5868;}
	.st2{fill:#F5AB60;}
	.st3{fill:#2585C4;}
	.st4{fill:#F6D951;}
	.st5{fill:#7D489C;}
</style>
<path class="st0" d="M-249,467.7c-7,0-12.7,5.7-12.7,12.8c0,7,5.7,12.7,12.7,12.7s12.8-5.8,12.7-12.8
	C-236.3,473.4-242,467.7-249,467.7z M-249.6,469.1C-249.5,469.1-249.5,469.1-249.6,469.1l0.1,4.7h-4.7
	C-253.1,471.2-251.4,469.4-249.6,469.1z M-252.4,469.6c-1.1,1-2,2.4-2.7,4.2h-3.1C-256.7,471.9-254.8,470.4-252.4,469.6z
	 M-258.8,474.8h3.2c-0.5,1.6-0.8,3.3-0.8,5.1h-3.9C-260.2,478.1-259.7,476.3-258.8,474.8z M-260.3,480.9h4c0,1.8,0.3,3.6,0.8,5.1
	h-3.3C-259.7,484.5-260.2,482.7-260.3,480.9z M-258.2,487h2.9c0.7,1.7,1.6,3.2,2.7,4.2C-254.9,490.4-256.8,488.9-258.2,487z
	 M-249.5,491.8C-249.5,491.8-249.5,491.8-249.5,491.8c-1.9-0.3-3.6-2.1-4.7-4.7h4.7V491.8z M-249.5,486h-5c-0.5-1.4-0.8-3.2-0.9-5.1
	h5.9V486z M-249.4,479.9h-6c0.1-1.8,0.4-3.6,0.9-5.1h5.1V479.9z M-237.7,479.9h-3.9c0-1.8-0.3-3.6-0.8-5.1h3.2
	C-238.3,476.3-237.8,478.1-237.7,479.9z M-239.9,473.8h-2.8c-0.6-1.7-1.5-3.1-2.5-4.1C-243.1,470.5-241.2,472-239.9,473.8z
	 M-248.5,469.1C-248.5,469.1-248.5,469.1-248.5,469.1c1.9,0.3,3.6,2,4.6,4.6h-4.6V469.1z M-248.5,474.8h5c0.5,1.5,0.8,3.3,0.8,5.1
	h-5.8V474.8z M-248.5,481h5.8c0,1.8-0.3,3.6-0.8,5.1h-5V481z M-248.5,491.7V487h4.6C-244.9,489.7-246.6,491.5-248.5,491.7z
	 M-245.8,491.3c1.2-1,2.2-2.5,2.9-4.3h3.1C-241.2,489-243.3,490.6-245.8,491.3z M-242.6,486c0.5-1.6,0.8-3.3,0.8-5.1h4.1
	c-0.1,1.8-0.6,3.6-1.4,5.1H-242.6z"/>
</svg>
