<?xml version="1.0" encoding="utf-8"?>
<!-- Generator: Adobe Illustrator 19.1.0, SVG Export Plug-In . SVG Version: 6.00 Build 0)  -->
<svg version="1.1" id="Layer_1" xmlns="http://www.w3.org/2000/svg" xmlns:xlink="http://www.w3.org/1999/xlink" x="0px" y="0px"
	 viewBox="-261.6 500.2 25.2 25.2" style="enable-background:new -261.6 500.2 25.2 25.2;" xml:space="preserve">
<style type="text/css">
	.st0{fill:#27B193;}
	.st1{fill:#EA5868;}
	.st2{fill:#F5AB60;}
	.st3{fill:#2585C4;}
	.st4{fill:#F6D951;}
	.st5{fill:#7D489C;}
</style>
<path class="st3" d="M-240.9,509h-1.9v-5c0-1.9-1.6-3.5-3.5-3.5h-5.3c-1.9,0-3.5,1.6-3.5,3.5v5h-1.7c-1.7,0-2.9,1.3-2.9,2.9v10.7
	c0,1.7,1.3,2.9,2.9,2.9h15.9c1.7,0,2.9-1.3,3-2.9v-10.7C-238,510.3-239.3,509-240.9,509z M-253.2,504c0-0.9,0.7-1.6,1.6-1.6h5.3
	c0.9,0,1.6,0.7,1.6,1.6v5h-8.4V504z M-240,522.6c0,0.6-0.4,1-1,1h-16c-0.6,0-1-0.4-1-1v-10.7c0-0.6,0.4-1,1-1h1.7h12.3h0.1h1.8
	c0.6,0,1,0.4,1,1V522.6z"/>
</svg>
