<?xml version="1.0" encoding="utf-8"?>
<!-- Generator: Adobe Illustrator 19.1.0, SVG Export Plug-In . SVG Version: 6.00 Build 0)  -->
<svg version="1.1" id="Layer_1" xmlns="http://www.w3.org/2000/svg" xmlns:xlink="http://www.w3.org/1999/xlink" x="0px" y="0px"
	 viewBox="-197.9 500.1 25.4 25.4" style="enable-background:new -197.9 500.1 25.4 25.4;" xml:space="preserve">
<style type="text/css">
	.st0{fill:#27B193;}
	.st1{fill:#EA5868;}
	.st2{fill:#F5AB60;}
	.st3{fill:#2585C4;}
	.st4{fill:#F6D951;}
	.st5{fill:#7D489C;}
</style>
<g>
	<path class="st5" d="M-185.2,500.2c-7,0-12.6,5.7-12.6,12.6c0,7,5.7,12.6,12.6,12.6s12.6-5.7,12.6-12.6
		C-172.5,505.8-178.2,500.2-185.2,500.2z M-185.2,523.5c-5.9,0-10.7-4.8-10.7-10.7c0-5.9,4.8-10.7,10.7-10.7s10.7,4.8,10.7,10.7
		C-174.4,518.7-179.2,523.5-185.2,523.5z"/>
	<path class="st5" d="M-187.9,511.6c0.8,0,1.3-0.6,1.3-1.3c0-0.8-0.6-1.3-1.3-1.3s-1.3,0.6-1.3,1.3
		C-189.2,511.1-188.6,511.6-187.9,511.6z"/>
	<path class="st5" d="M-182.1,511.6c0.8,0,1.3-0.6,1.3-1.3c0-0.8-0.6-1.3-1.3-1.3c-0.8,0-1.3,0.6-1.3,1.3
		C-183.5,511.1-182.9,511.6-182.1,511.6z"/>
	<path class="st5" d="M-181.1,514.9h-0.2c-0.4,0-0.7,0.3-0.8,0.6c-0.4,0.8-1.6,1.5-3.1,1.5c-1.4,0-2.6-0.7-3-1.5
		c-0.1-0.4-0.4-0.6-0.8-0.6h-0.2c-0.6,0-1,0.6-0.8,1.1c0.7,1.7,2.5,2.8,4.9,2.8c2.3,0,4.1-1.1,4.8-2.7
		C-180.1,515.4-180.5,514.9-181.1,514.9z"/>
</g>
</svg>
