<?xml version="1.0" encoding="utf-8"?>
<!-- Generator: Adobe Illustrator 19.1.0, SVG Export Plug-In . SVG Version: 6.00 Build 0)  -->
<svg version="1.1" id="Layer_1" xmlns="http://www.w3.org/2000/svg" xmlns:xlink="http://www.w3.org/1999/xlink" x="0px" y="0px"
	 viewBox="-197.9 467.7 25.6 25.4" style="enable-background:new -197.9 467.7 25.6 25.4;" xml:space="preserve">
<style type="text/css">
	.st0{fill:#27B193;}
	.st1{fill:#EA5868;}
	.st2{fill:#F5AB60;}
	.st3{fill:#2585C4;}
	.st4{fill:#F6D951;}
	.st5{fill:#7D489C;}
</style>
<g>
	<path class="st2" d="M-191.6,478.9h-2.4c-0.7,0-1.2,0.5-1.2,1.2v9.8c0,0.7,0.5,1.2,1.2,1.2h2.4c0.7,0,1.2-0.5,1.2-1.2v-9.8
		C-190.4,479.4-190.8,478.9-191.6,478.9z"/>
	<path class="st2" d="M-183.6,470.2h-2.4c-0.7,0-1.2,0.5-1.2,1.2v18.4c0,0.7,0.5,1.2,1.2,1.2h2.4c0.6,0,1.2-0.5,1.2-1.2v-18.4
		C-182.4,470.7-183,470.2-183.6,470.2z"/>
	<path class="st2" d="M-175.6,474.8h-2.4c-0.7,0-1.2,0.5-1.2,1.2v13.9c0,0.7,0.5,1.2,1.2,1.2h2.4c0.6,0,1.2-0.5,1.2-1.2v-13.9
		C-174.4,475.2-175,474.8-175.6,474.8z"/>
</g>
</svg>
