<?xml version="1.0" encoding="utf-8"?>
<!-- Generator: Adobe Illustrator 19.1.0, SVG Export Plug-In . SVG Version: 6.00 Build 0)  -->
<svg version="1.1" id="Layer_1" xmlns="http://www.w3.org/2000/svg" xmlns:xlink="http://www.w3.org/1999/xlink" x="0px" y="0px"
	 viewBox="-229.4 500.1 25.4 25.4" style="enable-background:new -229.4 500.1 25.4 25.4;" xml:space="preserve">
<style type="text/css">
	.st0{fill:#27B193;}
	.st1{fill:#EA5868;}
	.st2{fill:#F5AB60;}
	.st3{fill:#2585C4;}
	.st4{fill:#F6D951;}
	.st5{fill:#7D489C;}
</style>
<path class="st4" d="M-206.7,503.5c0-1.1-4.3-2.2-9.8-2.2c-5.4,0-9.8,1-9.8,2.2c0,0-1.6,11.1,9.1,13.5v0.5c-0.2,1.4-1,3.7-3.7,4.7
	c0,0-1.2,0.2-1.2,1.4c0,0,0.2,0.9,1,1h3.9h2h3.9c0.7-0.1,1-1,1-1c0-1.1-1.2-1.4-1.2-1.4c-3-1-3.7-3.8-3.8-5V517
	C-213.1,516.6-206.7,514.2-206.7,503.5z M-216.1,514.7l-0.4,0.1l-0.4-0.1c-7-1.6-7.4-7.8-7.3-10.1c1.1-0.2,3.7-0.9,7.5-0.9
	c3.8,0,6.3,0.5,7.4,0.9C-209.6,512.1-213.6,514.2-216.1,514.7z"/>
</svg>
