<svg width="16" height="16" viewBox="0 0 16 16" fill="none" xmlns="http://www.w3.org/2000/svg">
<path d="M12 5.33332H11.3334V3.99999C11.3334 2.15999 9.84002 0.666656 8.00002 0.666656C6.16002 0.666656 4.66669 2.15999 4.66669 3.99999V5.33332H4.00002C3.26669 5.33332 2.66669 5.93332 2.66669 6.66666V13.3333C2.66669 14.0667 3.26669 14.6667 4.00002 14.6667H12C12.7334 14.6667 13.3334 14.0667 13.3334 13.3333V6.66666C13.3334 5.93332 12.7334 5.33332 12 5.33332ZM8.00002 11.3333C7.26669 11.3333 6.66669 10.7333 6.66669 9.99999C6.66669 9.26666 7.26669 8.66666 8.00002 8.66666C8.73335 8.66666 9.33335 9.26666 9.33335 9.99999C9.33335 10.7333 8.73335 11.3333 8.00002 11.3333ZM10.0667 5.33332H5.93335V3.99999C5.93335 2.85999 6.86002 1.93332 8.00002 1.93332C9.14002 1.93332 10.0667 2.85999 10.0667 3.99999V5.33332Z" fill="white"/>
</svg>
