<?xml version="1.0" encoding="UTF-8"?>
<svg width="50px" height="50px" viewBox="0 0 50 50" version="1.1" xmlns="http://www.w3.org/2000/svg" xmlns:xlink="http://www.w3.org/1999/xlink">
    <!-- Generator: sketchtool 50.2 (55047) - http://www.bohemiancoding.com/sketch -->
    <title>F3918F19-AD4D-4AE7-8B56-A0472B95E5E0</title>
    <desc>Created with sketchtool.</desc>
    <defs></defs>
    <g id="Portfoilo" stroke="none" stroke-width="1" fill="none" fill-rule="evenodd">
        <g id="Project---Parallel" transform="translate(-60.000000, -35.000000)" fill="#000000">
            <g id="Navbar">
                <g id="Logo-bird" transform="translate(60.000000, 35.000000)">
                    <path d="M22.9952165,27.2254756 C24.0484623,27.9527467 25.2608905,28.4564682 26.5396032,28.6899591 C27.0768507,28.7881892 27.634506,28.8386065 28.1913793,28.8386065 C33.2289523,28.8386065 37.3063768,24.760214 37.3063768,19.7099662 C37.3063768,14.7289462 37.6234081,13.5387813 38.6132226,13.5387813 C38.904704,13.5387813 39.1271549,13.646955 39.3322383,13.867534 C39.6605758,14.2206797 40.2064789,13.7667743 39.91918,13.3795061 C39.5876402,12.9326029 39.4608701,12.6228574 39.4608701,11.9885063 C39.4608701,10.3272454 38.3526902,9.16666667 36.9282728,9.16666667 C35.750389,9.16666667 34.8422266,9.63513219 33.7670791,11.1362072 C33.5762969,11.4026966 31.5108844,14.2395398 28.1921339,18.794616 C26.9690882,20.4732794 25.6586799,22.2715734 24.3482713,24.0696832 C23.605706,25.0885974 23.605706,25.0885974 23.0815426,25.8077951 C22.9805791,25.9463229 22.9055455,26.0492732 22.8483026,26.1278138 C21.5127056,25.0118551 20.6165502,23.6525559 20.6165502,22.8783574 C20.6165502,22.1703976 21.1889601,21.5968211 21.8947025,21.5968211 C21.9085432,21.5965682 21.9085432,21.5965682 21.9094719,21.5965404 C22.0434332,21.5934941 22.2383867,21.6222807 22.4198657,21.7085228 C22.4530146,21.7242757 22.4846452,21.7416129 22.5146289,21.7605632 C22.6930853,21.8733515 22.9291858,21.820117 23.0419741,21.6416605 C23.1547624,21.4632041 23.1015279,21.2271036 22.9230714,21.1143153 C22.8667289,21.0787056 22.8082859,21.0466722 22.7480031,21.0180247 C22.4403729,20.8718332 22.1348294,20.826717 21.8920912,20.832237 C21.882942,20.832482 21.882942,20.832482 21.8780086,20.8326848 C20.766389,20.8323201 19.8520492,21.7485234 19.8520492,22.8783574 C19.8520492,23.9313682 20.8826197,25.4955521 22.3975522,26.7474214 C22.3522888,26.8097681 22.2935299,26.8907049 22.2154109,26.998309 C21.9089602,27.4204933 21.5674893,27.891131 21.1997524,28.3982312 C20.1490669,29.8471008 19.0983776,31.2979139 18.1177082,32.6547556 L18.0837473,32.7017445 C16.3958836,35.0371698 15.0999171,36.8390512 14.3479313,37.8990965 C13.306577,39.3651926 12.7028547,39.8353249 11.9852201,39.4957085 C10.8247553,38.946692 10.3813054,37.1099493 11.1414564,35.8470544 C12.6395731,33.3582234 15.8743588,30.3329658 20.5249822,28.1390642 C20.7159144,28.0489931 20.7976785,27.821195 20.7076075,27.6302628 C20.6175364,27.4393306 20.3897383,27.3575664 20.1988061,27.4476375 C15.4073127,29.7079936 12.060237,32.8382678 10.4864588,35.4527958 C9.50276296,37.0870822 10.0696768,39.4352053 11.6582366,40.1867537 C12.8775831,40.7638023 13.7129307,40.1132981 14.9713394,38.3416167 C15.7217467,37.2837967 17.0167911,35.4831971 18.7033653,33.1495562 L18.7373154,33.1025822 C19.7177206,31.746106 20.7681827,30.2956068 21.8186486,28.8470399 C22.1863147,28.3400373 22.527718,27.8694927 22.8341031,27.4473988 C22.9006524,27.3557313 22.9531478,27.2834222 22.9952165,27.2254756 Z M25,50 C11.1928813,50 0,38.8071187 0,25 C0,11.1928813 11.1928813,0 25,0 C38.8071187,0 50,11.1928813 50,25 C50,38.8071187 38.8071187,50 25,50 Z M38.6963692,11.9885063 C38.6963692,12.2951516 38.722599,12.5512482 38.777451,12.7813948 C38.7238234,12.7766685 38.6690889,12.7742803 38.6132226,12.7742803 C36.9335314,12.7742803 36.5418758,14.2445917 36.5418758,19.7099662 C36.5418758,24.3380324 32.8066895,28.0741055 28.1913793,28.0741055 C27.6805566,28.0741055 27.1689234,28.027849 26.677017,27.9379092 C25.5113549,27.725061 24.4057401,27.2671327 23.4450512,26.607014 C23.5046303,26.5252681 23.5855113,26.4142947 23.6993661,26.2580793 C24.2235365,25.538872 24.2235365,25.538872 24.9661105,24.5199459 C26.2765361,22.7218128 27.5869619,20.9234947 28.8132578,19.2403704 C32.1359788,14.6798446 34.1958441,11.8506205 34.3886511,11.5813027 C35.3204526,10.2803613 35.9973958,9.93116765 36.9282728,9.93116765 C37.9223655,9.93116765 38.6963692,10.741769 38.6963692,11.9885063 Z M37.5549169,11.5612167 C37.5549169,11.3684295 37.3990105,11.2122054 37.2066154,11.2122054 C37.0142203,11.2122054 36.8583139,11.3684295 36.8583139,11.5612167 C36.8583139,11.7540039 37.0142203,11.910228 37.2066154,11.910228 C37.3990105,11.910228 37.5549169,11.7540039 37.5549169,11.5612167 Z" id="Combined-Shape"></path>
                </g>
            </g>
        </g>
    </g>
</svg>